NotoSerifArmenian-Regular.ufo
<glyph name="uni0531" format="2">
  <advance width="833"/>
  <unicode hex="0531"/>
  <note>
uni0531
</note>
  <anchor x="359" y="714" name="top"/>
  <outline>
    <contour>
      <point x="466" y="714" type="line"/>
      <point x="466" y="677" type="line"/>
      <point x="510" y="677"/>
      <point x="516" y="666"/>
      <point x="516" y="603" type="curve" smooth="yes"/>
      <point x="516" y="207" type="line" smooth="yes"/>
      <point x="516" y="106"/>
      <point x="464" y="37"/>
      <point x="358" y="37" type="curve" smooth="yes"/>
      <point x="259" y="37"/>
      <point x="201" y="92"/>
      <point x="201" y="203" type="curve" smooth="yes"/>
      <point x="201" y="714" type="line"/>
      <point x="50" y="714" type="line"/>
      <point x="50" y="677" type="line"/>
      <point x="94" y="677"/>
      <point x="100" y="666"/>
      <point x="100" y="603" type="curve" smooth="yes"/>
      <point x="100" y="219" type="line" smooth="yes"/>
      <point x="100" y="64"/>
      <point x="199" y="-10"/>
      <point x="359" y="-10" type="curve" smooth="yes"/>
      <point x="526" y="-10"/>
      <point x="617" y="80"/>
      <point x="617" y="221" type="curve" smooth="yes"/>
      <point x="617" y="714" type="line"/>
    </contour>
    <contour>
      <point x="600" y="239" type="curve"/>
      <point x="599" y="189" type="line"/>
      <point x="609" y="193"/>
      <point x="628" y="196"/>
      <point x="643" y="196" type="curve" smooth="yes"/>
      <point x="690" y="196"/>
      <point x="708" y="177"/>
      <point x="708" y="100" type="curve" smooth="yes"/>
      <point x="708" y="0" type="line"/>
      <point x="804" y="0" type="line"/>
      <point x="804" y="98" type="line" smooth="yes"/>
      <point x="804" y="210"/>
      <point x="759" y="247"/>
      <point x="662" y="247" type="curve" smooth="yes"/>
      <point x="640" y="247"/>
      <point x="620" y="243"/>
    </contour>
  </outline>
</glyph>
<glyph name="uni0532" format="2">
  <advance width="683"/>
  <unicode hex="0532"/>
  <note>
uni0532
</note>
  <outline>
    <contour>
      <point x="252" y="0" type="line"/>
      <point x="252" y="37" type="line"/>
      <point x="208" y="37"/>
      <point x="202" y="48"/>
      <point x="202" y="111" type="curve" smooth="yes"/>
      <point x="202" y="507" type="line" smooth="yes"/>
      <point x="202" y="608"/>
      <point x="254" y="677"/>
      <point x="360" y="677" type="curve" smooth="yes"/>
      <point x="458" y="677"/>
      <point x="516" y="622"/>
      <point x="516" y="511" type="curve" smooth="yes"/>
      <point x="516" y="411" type="line"/>
      <point x="617" y="411" type="line"/>
      <point x="617" y="495" type="line" smooth="yes"/>
      <point x="617" y="650"/>
      <point x="519" y="724"/>
      <point x="359" y="724" type="curve" smooth="yes"/>
      <point x="191" y="724"/>
      <point x="101" y="634"/>
      <point x="101" y="493" type="curve" smooth="yes"/>
      <point x="101" y="0" type="line"/>
    </contour>
    <contour>
      <point x="193" y="300" type="line"/>
      <point x="608" y="300" type="line"/>
      <point x="608" y="345" type="line"/>
      <point x="193" y="345" type="line"/>
    </contour>
  </outline>
</glyph>
<glyph name="uni0533" format="2">
  <advance width="711"/>
  <unicode hex="0533"/>
  <note>
uni0533
</note>
  <outline>
    <contour>
      <point x="443" y="0" type="line"/>
      <point x="599" y="0" type="line"/>
      <point x="599" y="37" type="line"/>
      <point x="551" y="37"/>
      <point x="544" y="48"/>
      <point x="544" y="111" type="curve" smooth="yes"/>
      <point x="544" y="508" type="line" smooth="yes"/>
      <point x="544" y="645"/>
      <point x="464" y="724"/>
      <point x="305" y="724" type="curve" smooth="yes"/>
      <point x="146" y="724"/>
      <point x="57" y="647"/>
      <point x="57" y="509" type="curve" smooth="yes"/>
      <point x="57" y="373"/>
      <point x="162" y="300"/>
      <point x="323" y="300" type="curve" smooth="yes"/>
      <point x="443" y="300" type="line"/>
    </contour>
    <contour>
      <point x="323" y="344" type="line" smooth="yes"/>
      <point x="227" y="344"/>
      <point x="158" y="391"/>
      <point x="158" y="509" type="curve" smooth="yes"/>
      <point x="158" y="627"/>
      <point x="207" y="677"/>
      <point x="305" y="677" type="curve" smooth="yes"/>
      <point x="404" y="677"/>
      <point x="443" y="617"/>
      <point x="443" y="522" type="curve" smooth="yes"/>
      <point x="443" y="344" type="line"/>
    </contour>
    <contour>
      <point x="536" y="300" type="line"/>
      <point x="704" y="300" type="line"/>
      <point x="704" y="344" type="line"/>
      <point x="536" y="344" type="line"/>
    </contour>
  </outline>
</glyph>
<glyph name="uni0534" format="2">
  <advance width="739"/>
  <unicode hex="0534"/>
  <note>
uni0534
</note>
  <outline>
    <contour>
      <point x="66" y="355" type="line"/>
      <point x="167" y="355" type="line"/>
      <point x="167" y="507" type="line" smooth="yes"/>
      <point x="167" y="608"/>
      <point x="215" y="677"/>
      <point x="316" y="677" type="curve" smooth="yes"/>
      <point x="410" y="677"/>
      <point x="464" y="622"/>
      <point x="464" y="511" type="curve" smooth="yes"/>
      <point x="464" y="0" type="line"/>
      <point x="615" y="0" type="line"/>
      <point x="615" y="37" type="line"/>
      <point x="571" y="37"/>
      <point x="565" y="48"/>
      <point x="565" y="111" type="curve" smooth="yes"/>
      <point x="565" y="495" type="line" smooth="yes"/>
      <point x="565" y="650"/>
      <point x="471" y="724"/>
      <point x="315" y="724" type="curve" smooth="yes"/>
      <point x="152" y="724"/>
      <point x="66" y="634"/>
      <point x="66" y="493" type="curve" smooth="yes"/>
    </contour>
    <contour>
      <point x="551" y="301" type="line"/>
      <point x="732" y="301" type="line"/>
      <point x="732" y="345" type="line"/>
      <point x="551" y="345" type="line"/>
    </contour>
  </outline>
</glyph>
<glyph name="uni0535" format="2">
  <advance width="670"/>
  <unicode hex="0535"/>
  <note>
uni0535
</note>
  <outline>
    <contour>
      <point x="353" y="-10" type="curve" smooth="yes"/>
      <point x="509" y="-10"/>
      <point x="605" y="63"/>
      <point x="605" y="219" type="curve" smooth="yes"/>
      <point x="605" y="299" type="line"/>
      <point x="504" y="299" type="line"/>
      <point x="504" y="203" type="line" smooth="yes"/>
      <point x="504" y="93"/>
      <point x="448" y="37"/>
      <point x="354" y="37" type="curve" smooth="yes"/>
      <point x="252" y="37"/>
      <point x="201" y="105"/>
      <point x="201" y="207" type="curve" smooth="yes"/>
      <point x="201" y="714" type="line"/>
      <point x="50" y="714" type="line"/>
      <point x="50" y="677" type="line"/>
      <point x="93" y="677"/>
      <point x="100" y="666"/>
      <point x="100" y="603" type="curve" smooth="yes"/>
      <point x="100" y="221" type="line" smooth="yes"/>
      <point x="100" y="80"/>
      <point x="189" y="-10"/>
    </contour>
    <contour>
      <point x="191" y="444" type="line"/>
      <point x="597" y="444" type="line"/>
      <point x="597" y="488" type="line"/>
      <point x="191" y="488" type="line"/>
    </contour>
  </outline>
</glyph>
<glyph name="uni0536" format="2">
  <advance width="611"/>
  <unicode hex="0536"/>
  <note>
uni0536
</note>
  <outline>
    <contour>
      <point x="289" y="281" type="curve" smooth="yes"/>
      <point x="451" y="281"/>
      <point x="551" y="371"/>
      <point x="551" y="495" type="curve" smooth="yes"/>
      <point x="551" y="637"/>
      <point x="458" y="725"/>
      <point x="300" y="725" type="curve" smooth="yes"/>
      <point x="146" y="725"/>
      <point x="45" y="639"/>
      <point x="45" y="500" type="curve" smooth="yes"/>
      <point x="45" y="369"/>
      <point x="142" y="281"/>
    </contour>
    <contour>
      <point x="57" y="0" type="line"/>
      <point x="155" y="0" type="line"/>
      <point x="155" y="191" type="line"/>
      <point x="57" y="191" type="line"/>
    </contour>
    <contour>
      <point x="474" y="0" type="line"/>
      <point x="575" y="0" type="line"/>
      <point x="575" y="14" type="line" smooth="yes"/>
      <point x="575" y="105"/>
      <point x="521" y="138"/>
      <point x="426" y="138" type="curve" smooth="yes"/>
      <point x="106" y="138" type="line"/>
      <point x="106" y="94" type="line"/>
      <point x="389" y="94" type="line" smooth="yes"/>
      <point x="446" y="94"/>
      <point x="474" y="73"/>
      <point x="474" y="17" type="curve" smooth="yes"/>
    </contour>
    <contour>
      <point x="150" y="99" type="line"/>
      <point x="358" y="107"/>
      <point x="551" y="231"/>
      <point x="551" y="495" type="curve"/>
      <point x="456" y="495" type="line"/>
      <point x="456" y="241"/>
      <point x="313" y="138"/>
      <point x="150" y="138" type="curve"/>
    </contour>
    <contour>
      <point x="297" y="329" type="curve" smooth="yes"/>
      <point x="202" y="329"/>
      <point x="151" y="398"/>
      <point x="151" y="500" type="curve" smooth="yes"/>
      <point x="151" y="611"/>
      <point x="208" y="678"/>
      <point x="300" y="678" type="curve" smooth="yes"/>
      <point x="398" y="678"/>
      <point x="445" y="606"/>
      <point x="445" y="506" type="curve" smooth="yes"/>
      <point x="445" y="399"/>
      <point x="394" y="329"/>
    </contour>
  </outline>
</glyph>
<glyph name="uni0537" format="2">
  <advance width="556"/>
  <unicode hex="0537"/>
  <note>
uni0537
</note>
  <outline>
    <contour>
      <point x="201" y="34" type="line"/>
      <point x="201" y="714" type="line"/>
      <point x="50" y="714" type="line"/>
      <point x="50" y="677" type="line"/>
      <point x="93" y="677"/>
      <point x="100" y="666"/>
      <point x="100" y="603" type="curve" smooth="yes"/>
      <point x="100" y="0" type="line"/>
    </contour>
    <contour>
      <point x="161" y="444" type="line"/>
      <point x="494" y="444" type="line"/>
      <point x="494" y="488" type="line"/>
      <point x="161" y="488" type="line"/>
    </contour>
    <contour>
      <point x="348" y="98" type="curve" smooth="yes"/>
      <point x="282" y="98"/>
      <point x="200" y="78"/>
      <point x="100" y="35" type="curve"/>
      <point x="100" y="0" type="line"/>
      <point x="170" y="29"/>
      <point x="262" y="52"/>
      <point x="312" y="52" type="curve" smooth="yes"/>
      <point x="376" y="52"/>
      <point x="400" y="31"/>
      <point x="400" y="-34" type="curve" smooth="yes"/>
      <point x="400" y="-62" type="line"/>
      <point x="501" y="-62" type="line"/>
      <point x="501" y="-38" type="line" smooth="yes"/>
      <point x="501" y="60"/>
      <point x="450" y="98"/>
    </contour>
  </outline>
</glyph>
<glyph name="uni0538" format="2">
  <advance width="682"/>
  <unicode hex="0538"/>
  <note>
uni0538
</note>
  <outline>
    <contour>
      <point x="350" y="724" type="curve" smooth="yes"/>
      <point x="187" y="724"/>
      <point x="101" y="634"/>
      <point x="101" y="493" type="curve" smooth="yes"/>
      <point x="101" y="0" type="line"/>
      <point x="202" y="0" type="line"/>
      <point x="202" y="507" type="line" smooth="yes"/>
      <point x="202" y="608"/>
      <point x="250" y="677"/>
      <point x="351" y="677" type="curve" smooth="yes"/>
      <point x="445" y="677"/>
      <point x="499" y="622"/>
      <point x="499" y="511" type="curve" smooth="yes"/>
      <point x="499" y="353" type="line"/>
      <point x="600" y="353" type="line"/>
      <point x="600" y="495" type="line" smooth="yes"/>
      <point x="600" y="650"/>
      <point x="506" y="724"/>
    </contour>
    <contour>
      <point x="193" y="0" type="line"/>
      <point x="616" y="0" type="line"/>
      <point x="616" y="45" type="line"/>
      <point x="193" y="45" type="line"/>
    </contour>
  </outline>
</glyph>
<glyph name="uni0539" format="2">
  <advance width="798"/>
  <unicode hex="0539"/>
  <note>
uni0539
</note>
  <outline>
    <contour>
      <point x="252" y="0" type="line"/>
      <point x="252" y="37" type="line"/>
      <point x="208" y="37"/>
      <point x="202" y="48"/>
      <point x="202" y="111" type="curve" smooth="yes"/>
      <point x="202" y="492" type="line" smooth="yes"/>
      <point x="202" y="608"/>
      <point x="266" y="677"/>
      <point x="401" y="677" type="curve" smooth="yes"/>
      <point x="529" y="677"/>
      <point x="601" y="617"/>
      <point x="601" y="453" type="curve"/>
      <point x="702" y="453" type="line"/>
      <point x="702" y="644"/>
      <point x="590" y="724"/>
      <point x="400" y="724" type="curve" smooth="yes"/>
      <point x="203" y="724"/>
      <point x="101" y="634"/>
      <point x="101" y="493" type="curve" smooth="yes"/>
      <point x="101" y="0" type="line"/>
    </contour>
    <contour>
      <point x="529" y="425" type="curve" smooth="yes"/>
      <point x="601" y="425" type="line"/>
      <point x="601" y="225"/>
      <point x="571" y="176"/>
      <point x="501" y="176" type="curve" smooth="yes"/>
      <point x="438" y="176"/>
      <point x="413" y="219"/>
      <point x="413" y="299" type="curve" smooth="yes"/>
      <point x="413" y="388"/>
      <point x="465" y="425"/>
    </contour>
    <contour>
      <point x="790" y="470" type="line"/>
      <point x="521" y="470" type="line" smooth="yes"/>
      <point x="396" y="470"/>
      <point x="319" y="413"/>
      <point x="319" y="305" type="curve" smooth="yes"/>
      <point x="319" y="191"/>
      <point x="378" y="132"/>
      <point x="500" y="132" type="curve" smooth="yes"/>
      <point x="632" y="132"/>
      <point x="702" y="213"/>
      <point x="702" y="425" type="curve"/>
      <point x="790" y="425" type="line"/>
    </contour>
  </outline>
</glyph>
<glyph name="uni053A" format="2">
  <advance width="669"/>
  <unicode hex="053A"/>
  <note>
uni053A
</note>
  <outline>
    <contour>
      <point x="292" y="-10" type="curve" smooth="yes"/>
      <point x="456" y="-10"/>
      <point x="530" y="79"/>
      <point x="530" y="224" type="curve" smooth="yes"/>
      <point x="530" y="714" type="line"/>
      <point x="375" y="714" type="line"/>
      <point x="375" y="677" type="line"/>
      <point x="423" y="677"/>
      <point x="429" y="666"/>
      <point x="429" y="603" type="curve" smooth="yes"/>
      <point x="429" y="462" type="line"/>
      <point x="333" y="462" type="line" smooth="yes"/>
      <point x="161" y="462"/>
      <point x="50" y="374"/>
      <point x="50" y="229" type="curve" smooth="yes"/>
      <point x="50" y="71"/>
      <point x="134" y="-10"/>
    </contour>
    <contour>
      <point x="296" y="37" type="curve" smooth="yes"/>
      <point x="201" y="37"/>
      <point x="157" y="97"/>
      <point x="157" y="230" type="curve" smooth="yes"/>
      <point x="157" y="356"/>
      <point x="238" y="418"/>
      <point x="345" y="418" type="curve" smooth="yes"/>
      <point x="430" y="418" type="line"/>
      <point x="430" y="210" type="line" smooth="yes"/>
      <point x="430" y="108"/>
      <point x="396" y="37"/>
    </contour>
    <contour>
      <point x="521" y="462" type="line"/>
      <point x="521" y="418" type="line"/>
      <point x="661" y="418" type="line"/>
      <point x="661" y="462" type="line"/>
    </contour>
  </outline>
</glyph>
<glyph name="uni053B" format="2">
  <advance width="649"/>
  <unicode hex="053B"/>
  <note>
uni053B
</note>
  <outline>
    <contour>
      <point x="209" y="318" type="line"/>
      <point x="209" y="422"/>
      <point x="260" y="507"/>
      <point x="360" y="507" type="curve" smooth="yes"/>
      <point x="436" y="507"/>
      <point x="483" y="464"/>
      <point x="483" y="355" type="curve" smooth="yes"/>
      <point x="483" y="271" type="line"/>
      <point x="584" y="271" type="line"/>
      <point x="584" y="346" type="line" smooth="yes"/>
      <point x="584" y="491"/>
      <point x="516" y="557"/>
      <point x="382" y="557" type="curve" smooth="yes"/>
      <point x="295" y="557"/>
      <point x="245" y="520"/>
      <point x="211" y="463" type="curve"/>
      <point x="205" y="462" type="line"/>
      <point x="208" y="492"/>
      <point x="209" y="524"/>
      <point x="209" y="556" type="curve" smooth="yes"/>
      <point x="209" y="714" type="line"/>
      <point x="58" y="714" type="line"/>
      <point x="58" y="677" type="line"/>
      <point x="102" y="677"/>
      <point x="108" y="668"/>
      <point x="108" y="605" type="curve" smooth="yes"/>
      <point x="108" y="0" type="line"/>
      <point x="260" y="0" type="line"/>
      <point x="260" y="37" type="line"/>
      <point x="216" y="37"/>
      <point x="209" y="46"/>
      <point x="209" y="109" type="curve" smooth="yes"/>
    </contour>
  </outline>
</glyph>
<glyph name="uni053C" format="2">
  <advance width="519"/>
  <unicode hex="053C"/>
  <note>
uni053C
</note>
  <outline>
    <contour>
      <point x="509" y="99" type="line"/>
      <point x="467" y="99" type="line"/>
      <point x="467" y="53"/>
      <point x="463" y="45"/>
      <point x="417" y="45" type="curve" smooth="yes"/>
      <point x="209" y="45" type="line"/>
      <point x="209" y="714" type="line"/>
      <point x="58" y="714" type="line"/>
      <point x="58" y="677" type="line"/>
      <point x="102" y="677"/>
      <point x="108" y="668"/>
      <point x="108" y="605" type="curve" smooth="yes"/>
      <point x="108" y="0" type="line"/>
      <point x="509" y="0" type="line"/>
    </contour>
  </outline>
</glyph>
<glyph name="uni053D" format="2">
  <advance width="811"/>
  <unicode hex="053D"/>
  <note>
uni053D
</note>
  <outline>
    <contour>
      <point x="209" y="109" type="curve" smooth="yes"/>
      <point x="209" y="714" type="line"/>
      <point x="58" y="714" type="line"/>
      <point x="58" y="677" type="line"/>
      <point x="102" y="677"/>
      <point x="108" y="668"/>
      <point x="108" y="605" type="curve" smooth="yes"/>
      <point x="108" y="0" type="line"/>
      <point x="260" y="0" type="line"/>
      <point x="260" y="37" type="line"/>
      <point x="216" y="37"/>
      <point x="209" y="46"/>
    </contour>
    <contour>
      <point x="589" y="521" type="line"/>
      <point x="631" y="521"/>
      <point x="643" y="513"/>
      <point x="643" y="467" type="curve" smooth="yes"/>
      <point x="643" y="335" type="line" smooth="yes"/>
      <point x="643" y="245"/>
      <point x="618" y="206"/>
      <point x="548" y="206" type="curve" smooth="yes"/>
      <point x="486" y="206"/>
      <point x="457" y="241"/>
      <point x="457" y="335" type="curve" smooth="yes"/>
      <point x="457" y="560" type="line"/>
      <point x="188" y="560" type="line"/>
      <point x="188" y="515" type="line"/>
      <point x="356" y="515" type="line"/>
      <point x="356" y="335" type="line" smooth="yes"/>
      <point x="356" y="214"/>
      <point x="433" y="160"/>
      <point x="548" y="160" type="curve" smooth="yes"/>
      <point x="668" y="160"/>
      <point x="744" y="218"/>
      <point x="744" y="336" type="curve" smooth="yes"/>
      <point x="744" y="560" type="line"/>
      <point x="589" y="560" type="line"/>
    </contour>
  </outline>
</glyph>
<glyph name="uni053E" format="2">
  <advance width="678"/>
  <unicode hex="053E"/>
  <note>
uni053E
</note>
  <outline>
    <contour>
      <point x="266" y="603" type="curve" smooth="yes"/>
      <point x="164" y="623"/>
      <point x="136" y="659"/>
      <point x="136" y="714" type="curve"/>
      <point x="39" y="714" type="line"/>
      <point x="39" y="630"/>
      <point x="92" y="588"/>
      <point x="226" y="564" type="curve" smooth="yes"/>
      <point x="425" y="528"/>
      <point x="517" y="407"/>
      <point x="517" y="256" type="curve" smooth="yes"/>
      <point x="517" y="115"/>
      <point x="444" y="37"/>
      <point x="337" y="37" type="curve" smooth="yes"/>
      <point x="209" y="37"/>
      <point x="162" y="118"/>
      <point x="162" y="252" type="curve" smooth="yes"/>
      <point x="162" y="443"/>
      <point x="337" y="675"/>
      <point x="462" y="675" type="curve" smooth="yes"/>
      <point x="512" y="675"/>
      <point x="543" y="650"/>
      <point x="544" y="576" type="curve"/>
      <point x="594" y="576"/>
      <point x="631" y="598"/>
      <point x="631" y="634" type="curve" smooth="yes"/>
      <point x="631" y="692"/>
      <point x="583" y="726"/>
      <point x="498" y="726" type="curve" smooth="yes"/>
      <point x="291" y="726"/>
      <point x="56" y="454"/>
      <point x="56" y="255" type="curve" smooth="yes"/>
      <point x="56" y="87"/>
      <point x="141" y="-10"/>
      <point x="337" y="-10" type="curve" smooth="yes"/>
      <point x="505" y="-10"/>
      <point x="624" y="98"/>
      <point x="624" y="256" type="curve" smooth="yes"/>
      <point x="624" y="428"/>
      <point x="491" y="560"/>
    </contour>
  </outline>
</glyph>
<glyph name="uni0540" format="2">
  <advance width="581"/>
  <unicode hex="0540"/>
  <note>
uni0540
</note>
  <outline>
    <contour>
      <point x="423" y="-62" type="line"/>
      <point x="524" y="-62" type="line"/>
      <point x="524" y="-49" type="line" smooth="yes"/>
      <point x="524" y="48"/>
      <point x="473" y="80"/>
      <point x="360" y="96" type="curve" smooth="yes"/>
      <point x="64" y="137" type="line"/>
      <point x="54" y="90" type="line"/>
      <point x="351" y="49" type="line" smooth="yes"/>
      <point x="399" y="42"/>
      <point x="423" y="17"/>
      <point x="423" y="-45" type="curve" smooth="yes"/>
    </contour>
    <contour>
      <point x="155" y="90" type="line"/>
      <point x="168" y="476"/>
      <point x="246" y="679"/>
      <point x="354" y="679" type="curve" smooth="yes"/>
      <point x="415" y="679"/>
      <point x="444" y="647"/>
      <point x="444" y="559" type="curve"/>
      <point x="494" y="559"/>
      <point x="532" y="581"/>
      <point x="532" y="620" type="curve" smooth="yes"/>
      <point x="532" y="688"/>
      <point x="472" y="726"/>
      <point x="365" y="726" type="curve" smooth="yes"/>
      <point x="181" y="726"/>
      <point x="71" y="523"/>
      <point x="54" y="90" type="curve"/>
    </contour>
  </outline>
</glyph>
<glyph name="uni0541" format="2">
  <advance width="620"/>
  <unicode hex="0541"/>
  <note>
uni0541
</note>
  <outline>
    <contour>
      <point x="298" y="360" type="curve" smooth="yes"/>
      <point x="206" y="360"/>
      <point x="153" y="420"/>
      <point x="153" y="518" type="curve" smooth="yes"/>
      <point x="153" y="618"/>
      <point x="213" y="678"/>
      <point x="305" y="678" type="curve" smooth="yes"/>
      <point x="399" y="678"/>
      <point x="452" y="611"/>
      <point x="452" y="477" type="curve" smooth="yes"/>
      <point x="452" y="458"/>
      <point x="451" y="432"/>
      <point x="449" y="411" type="curve"/>
      <point x="417" y="384"/>
      <point x="356" y="360"/>
    </contour>
    <contour>
      <point x="443" y="355" type="curve"/>
      <point x="424" y="186"/>
      <point x="332" y="37"/>
      <point x="211" y="37" type="curve" smooth="yes"/>
      <point x="164" y="37"/>
      <point x="144" y="63"/>
      <point x="144" y="105" type="curve" smooth="yes"/>
      <point x="144" y="149"/>
      <point x="167" y="180"/>
      <point x="214" y="180" type="curve" smooth="yes"/>
      <point x="335" y="180"/>
      <point x="367" y="-10"/>
      <point x="527" y="-10" type="curve" smooth="yes"/>
      <point x="560" y="-10"/>
      <point x="579" y="10"/>
      <point x="580" y="43" type="curve"/>
      <point x="389" y="43"/>
      <point x="388" y="226"/>
      <point x="213" y="226" type="curve" smooth="yes"/>
      <point x="116" y="226"/>
      <point x="53" y="175"/>
      <point x="53" y="101" type="curve" smooth="yes"/>
      <point x="53" y="32"/>
      <point x="105" y="-10"/>
      <point x="206" y="-10" type="curve" smooth="yes"/>
      <point x="392" y="-10"/>
      <point x="559" y="201"/>
      <point x="559" y="461" type="curve" smooth="yes"/>
      <point x="559" y="645"/>
      <point x="453" y="725"/>
      <point x="305" y="725" type="curve" smooth="yes"/>
      <point x="151" y="725"/>
      <point x="47" y="645"/>
      <point x="47" y="516" type="curve" smooth="yes"/>
      <point x="47" y="394"/>
      <point x="145" y="315"/>
      <point x="276" y="315" type="curve" smooth="yes"/>
      <point x="351" y="315"/>
      <point x="409" y="332"/>
    </contour>
  </outline>
</glyph>
<glyph name="uni0542" format="2">
  <advance width="739"/>
  <unicode hex="0542"/>
  <note>
uni0542
</note>
  <outline>
    <contour>
      <point x="547" y="0" type="line"/>
      <point x="734" y="0" type="line"/>
      <point x="734" y="45" type="line"/>
      <point x="547" y="45" type="line"/>
    </contour>
    <contour>
      <point x="318" y="724" type="curve" smooth="yes"/>
      <point x="162" y="724"/>
      <point x="66" y="651"/>
      <point x="66" y="495" type="curve" smooth="yes"/>
      <point x="66" y="346" type="line"/>
      <point x="167" y="346" type="line"/>
      <point x="167" y="511" type="line" smooth="yes"/>
      <point x="167" y="621"/>
      <point x="223" y="677"/>
      <point x="317" y="677" type="curve" smooth="yes"/>
      <point x="414" y="677"/>
      <point x="465" y="609"/>
      <point x="465" y="507" type="curve" smooth="yes"/>
      <point x="465" y="0" type="line"/>
      <point x="566" y="0" type="line"/>
      <point x="566" y="493" type="line" smooth="yes"/>
      <point x="566" y="634"/>
      <point x="477" y="724"/>
    </contour>
  </outline>
</glyph>
<glyph name="uni0543" format="2">
  <advance width="693"/>
  <unicode hex="0543"/>
  <note>
uni0543
</note>
  <outline>
    <contour>
      <point x="625" y="0" type="line"/>
      <point x="625" y="457"/>
      <point x="506" y="624"/>
      <point x="55" y="624" type="curve"/>
      <point x="55" y="575" type="line"/>
      <point x="443" y="575"/>
      <point x="524" y="430"/>
      <point x="524" y="47" type="curve"/>
      <point x="316" y="47" type="line" smooth="yes"/>
      <point x="207" y="47"/>
      <point x="154" y="91"/>
      <point x="154" y="201" type="curve" smooth="yes"/>
      <point x="154" y="411"/>
      <point x="326" y="674"/>
      <point x="480" y="674" type="curve" smooth="yes"/>
      <point x="526" y="674"/>
      <point x="551" y="643"/>
      <point x="552" y="565" type="curve"/>
      <point x="602" y="565"/>
      <point x="640" y="587"/>
      <point x="640" y="623" type="curve" smooth="yes"/>
      <point x="640" y="685"/>
      <point x="591" y="726"/>
      <point x="503" y="726" type="curve" smooth="yes"/>
      <point x="281" y="726"/>
      <point x="47" y="389"/>
      <point x="47" y="204" type="curve" smooth="yes"/>
      <point x="47" y="62"/>
      <point x="128" y="0"/>
      <point x="316" y="0" type="curve" smooth="yes"/>
    </contour>
  </outline>
</glyph>
<glyph name="uni0544" format="2">
  <advance width="754"/>
  <unicode hex="0544"/>
  <note>
uni0544
</note>
  <outline>
    <contour>
      <point x="466" y="714" type="line"/>
      <point x="466" y="677" type="line"/>
      <point x="510" y="677"/>
      <point x="516" y="666"/>
      <point x="516" y="603" type="curve" smooth="yes"/>
      <point x="516" y="207" type="line" smooth="yes"/>
      <point x="516" y="106"/>
      <point x="464" y="37"/>
      <point x="358" y="37" type="curve" smooth="yes"/>
      <point x="259" y="37"/>
      <point x="201" y="92"/>
      <point x="201" y="203" type="curve" smooth="yes"/>
      <point x="201" y="714" type="line"/>
      <point x="50" y="714" type="line"/>
      <point x="50" y="677" type="line"/>
      <point x="94" y="677"/>
      <point x="100" y="666"/>
      <point x="100" y="603" type="curve" smooth="yes"/>
      <point x="100" y="219" type="line" smooth="yes"/>
      <point x="100" y="64"/>
      <point x="199" y="-10"/>
      <point x="359" y="-10" type="curve" smooth="yes"/>
      <point x="526" y="-10"/>
      <point x="617" y="80"/>
      <point x="617" y="221" type="curve" smooth="yes"/>
      <point x="617" y="714" type="line"/>
    </contour>
    <contour>
      <point x="629" y="667" type="line" smooth="yes"/>
      <point x="675" y="667"/>
      <point x="691" y="637"/>
      <point x="691" y="555" type="curve"/>
      <point x="740" y="555"/>
      <point x="766" y="581"/>
      <point x="766" y="621" type="curve" smooth="yes"/>
      <point x="766" y="685"/>
      <point x="723" y="714"/>
      <point x="634" y="714" type="curve" smooth="yes"/>
      <point x="583" y="714" type="line"/>
      <point x="583" y="667" type="line"/>
    </contour>
  </outline>
</glyph>
<glyph name="uni0545" format="2">
  <advance width="641"/>
  <unicode hex="0545"/>
  <note>
uni0545
</note>
  <outline>
    <contour>
      <point x="319" y="-10" type="curve" smooth="yes"/>
      <point x="467" y="-10"/>
      <point x="596" y="62"/>
      <point x="596" y="205" type="curve" smooth="yes"/>
      <point x="596" y="329"/>
      <point x="495" y="375"/>
      <point x="413" y="384" type="curve"/>
      <point x="499" y="403"/>
      <point x="566" y="449"/>
      <point x="566" y="553" type="curve" smooth="yes"/>
      <point x="566" y="665"/>
      <point x="474" y="725"/>
      <point x="332" y="725" type="curve" smooth="yes"/>
      <point x="177" y="725"/>
      <point x="104" y="651"/>
      <point x="104" y="584" type="curve" smooth="yes"/>
      <point x="104" y="537"/>
      <point x="140" y="524"/>
      <point x="189" y="524" type="curve"/>
      <point x="189" y="606"/>
      <point x="218" y="680"/>
      <point x="328" y="680" type="curve" smooth="yes"/>
      <point x="418" y="680"/>
      <point x="463" y="627"/>
      <point x="463" y="547" type="curve" smooth="yes"/>
      <point x="463" y="448"/>
      <point x="408" y="404"/>
      <point x="303" y="404" type="curve" smooth="yes"/>
      <point x="54" y="404" type="line"/>
      <point x="54" y="358" type="line"/>
      <point x="304" y="358" type="line" smooth="yes"/>
      <point x="427" y="358"/>
      <point x="492" y="301"/>
      <point x="492" y="203" type="curve" smooth="yes"/>
      <point x="492" y="94"/>
      <point x="417" y="37"/>
      <point x="311" y="37" type="curve" smooth="yes"/>
      <point x="204" y="37"/>
      <point x="150" y="93"/>
      <point x="148" y="204" type="curve"/>
      <point x="100" y="204"/>
      <point x="63" y="181"/>
      <point x="63" y="145" type="curve" smooth="yes"/>
      <point x="63" y="54"/>
      <point x="144" y="-10"/>
    </contour>
  </outline>
</glyph>
<glyph name="uni0546" format="2">
  <advance width="617"/>
  <unicode hex="0546"/>
  <note>
uni0546
</note>
  <outline>
    <contour>
      <point x="309" y="-10" type="curve" smooth="yes"/>
      <point x="460" y="-10"/>
      <point x="551" y="64"/>
      <point x="551" y="219" type="curve" smooth="yes"/>
      <point x="551" y="415" type="line"/>
      <point x="450" y="415" type="line"/>
      <point x="450" y="216" type="line" smooth="yes"/>
      <point x="450" y="92"/>
      <point x="399" y="37"/>
      <point x="309" y="37" type="curve" smooth="yes"/>
      <point x="213" y="37"/>
      <point x="171" y="98"/>
      <point x="171" y="227" type="curve" smooth="yes"/>
      <point x="171" y="365"/>
      <point x="212" y="507"/>
      <point x="280" y="634" type="curve"/>
      <point x="219" y="615" type="line"/>
      <point x="130" y="496"/>
      <point x="64" y="365"/>
      <point x="64" y="228" type="curve" smooth="yes"/>
      <point x="64" y="72"/>
      <point x="150" y="-10"/>
    </contour>
    <contour>
      <point x="280" y="634" type="line"/>
      <point x="158" y="634"/>
      <point x="132" y="674"/>
      <point x="132" y="760" type="curve"/>
      <point x="75" y="760"/>
      <point x="41" y="731"/>
      <point x="41" y="695" type="curve" smooth="yes"/>
      <point x="41" y="624"/>
      <point x="96" y="587"/>
      <point x="238" y="587" type="curve"/>
    </contour>
  </outline>
</glyph>
<glyph name="uni0547" format="2">
  <advance width="656"/>
  <unicode hex="0547"/>
  <note>
uni0547
</note>
  <outline>
    <contour>
      <point x="38" y="651" type="line"/>
      <point x="73" y="664"/>
      <point x="114" y="672"/>
      <point x="148" y="672" type="curve" smooth="yes"/>
      <point x="320" y="672"/>
      <point x="336" y="549"/>
      <point x="485" y="549" type="curve" smooth="yes"/>
      <point x="575" y="549"/>
      <point x="621" y="616"/>
      <point x="621" y="714" type="curve"/>
      <point x="570" y="714" type="line"/>
      <point x="570" y="665"/>
      <point x="540" y="634"/>
      <point x="477" y="634" type="curve" smooth="yes"/>
      <point x="363" y="634"/>
      <point x="310" y="722"/>
      <point x="158" y="722" type="curve" smooth="yes"/>
      <point x="123" y="722"/>
      <point x="73" y="712"/>
      <point x="38" y="699" type="curve"/>
    </contour>
    <contour>
      <point x="384" y="614" type="curve"/>
      <point x="325" y="628" type="line"/>
      <point x="152" y="505"/>
      <point x="56" y="373"/>
      <point x="56" y="231" type="curve" smooth="yes"/>
      <point x="56" y="84"/>
      <point x="151" y="-10"/>
      <point x="313" y="-10" type="curve" smooth="yes"/>
      <point x="469" y="-10"/>
      <point x="564" y="70"/>
      <point x="564" y="206" type="curve" smooth="yes"/>
      <point x="564" y="295" type="line"/>
      <point x="463" y="295" type="line"/>
      <point x="463" y="203" type="line" smooth="yes"/>
      <point x="463" y="94"/>
      <point x="407" y="37"/>
      <point x="313" y="37" type="curve" smooth="yes"/>
      <point x="212" y="37"/>
      <point x="163" y="102"/>
      <point x="163" y="230" type="curve" smooth="yes"/>
      <point x="163" y="369"/>
      <point x="232" y="498"/>
    </contour>
  </outline>
</glyph>
<glyph name="uni0548" format="2">
  <advance width="718"/>
  <unicode hex="0548"/>
  <note>
uni0548
</note>
  <anchor x="359" y="714" name="top"/>
  <outline>
    <contour>
      <point x="252" y="0" type="line"/>
      <point x="252" y="37" type="line"/>
      <point x="208" y="37"/>
      <point x="202" y="48"/>
      <point x="202" y="111" type="curve" smooth="yes"/>
      <point x="202" y="507" type="line" smooth="yes"/>
      <point x="202" y="608"/>
      <point x="254" y="677"/>
      <point x="360" y="677" type="curve" smooth="yes"/>
      <point x="458" y="677"/>
      <point x="516" y="622"/>
      <point x="516" y="511" type="curve" smooth="yes"/>
      <point x="516" y="0" type="line"/>
      <point x="668" y="0" type="line"/>
      <point x="668" y="37" type="line"/>
      <point x="624" y="37"/>
      <point x="617" y="48"/>
      <point x="617" y="111" type="curve" smooth="yes"/>
      <point x="617" y="494" type="line" smooth="yes"/>
      <point x="617" y="650"/>
      <point x="519" y="724"/>
      <point x="359" y="724" type="curve" smooth="yes"/>
      <point x="191" y="724"/>
      <point x="101" y="634"/>
      <point x="101" y="494" type="curve" smooth="yes"/>
      <point x="101" y="0" type="line"/>
    </contour>
  </outline>
</glyph>
<glyph name="uni0549" format="2">
  <advance width="627"/>
  <unicode hex="0549"/>
  <note>
uni0549
</note>
  <outline>
    <contour>
      <point x="249" y="128" type="curve"/>
      <point x="289" y="100" type="line"/>
      <point x="470" y="200"/>
      <point x="573" y="334"/>
      <point x="573" y="482" type="curve" smooth="yes"/>
      <point x="573" y="630"/>
      <point x="478" y="724"/>
      <point x="312" y="724" type="curve" smooth="yes"/>
      <point x="154" y="724"/>
      <point x="56" y="650"/>
      <point x="56" y="507" type="curve" smooth="yes"/>
      <point x="56" y="479" type="line"/>
      <point x="157" y="479" type="line"/>
      <point x="157" y="511" type="line" smooth="yes"/>
      <point x="157" y="626"/>
      <point x="215" y="677"/>
      <point x="312" y="677" type="curve" smooth="yes"/>
      <point x="415" y="677"/>
      <point x="466" y="611"/>
      <point x="466" y="484" type="curve" smooth="yes"/>
      <point x="466" y="345"/>
      <point x="400" y="216"/>
    </contour>
    <contour>
      <point x="558" y="-10" type="curve"/>
      <point x="558" y="40" type="line"/>
      <point x="382" y="46"/>
      <point x="236" y="152"/>
      <point x="145" y="299" type="curve"/>
      <point x="39" y="248" type="line"/>
      <point x="163" y="100"/>
      <point x="349" y="-1"/>
    </contour>
  </outline>
</glyph>
<glyph name="uni054A" format="2">
  <advance width="797"/>
  <unicode hex="054A"/>
  <note>
uni054A
</note>
  <outline>
    <contour>
      <point x="697" y="111" type="curve" smooth="yes"/>
      <point x="697" y="493" type="line" smooth="yes"/>
      <point x="697" y="656"/>
      <point x="576" y="724"/>
      <point x="383" y="724" type="curve" smooth="yes"/>
      <point x="184" y="724"/>
      <point x="71" y="634"/>
      <point x="71" y="493" type="curve" smooth="yes"/>
      <point x="71" y="322" type="line"/>
      <point x="172" y="322" type="line"/>
      <point x="172" y="507" type="line" smooth="yes"/>
      <point x="172" y="618"/>
      <point x="236" y="677"/>
      <point x="384" y="677" type="curve" smooth="yes"/>
      <point x="525" y="677"/>
      <point x="596" y="622"/>
      <point x="596" y="507" type="curve" smooth="yes"/>
      <point x="596" y="0" type="line"/>
      <point x="748" y="0" type="line"/>
      <point x="748" y="37" type="line"/>
      <point x="704" y="37"/>
      <point x="697" y="48"/>
    </contour>
    <contour>
      <point x="333" y="685" type="line"/>
      <point x="333" y="169" type="line"/>
      <point x="434" y="169" type="line"/>
      <point x="434" y="685" type="line"/>
    </contour>
  </outline>
</glyph>
<glyph name="uni054B" format="2">
  <advance width="623"/>
  <unicode hex="054B"/>
  <note>
uni054B
</note>
  <outline>
    <contour>
      <point x="69" y="0" type="line"/>
      <point x="167" y="0" type="line"/>
      <point x="167" y="191" type="line"/>
      <point x="69" y="191" type="line"/>
    </contour>
    <contour>
      <point x="484" y="0" type="line"/>
      <point x="585" y="0" type="line"/>
      <point x="585" y="14" type="line" smooth="yes"/>
      <point x="585" y="105"/>
      <point x="531" y="138"/>
      <point x="436" y="138" type="curve" smooth="yes"/>
      <point x="118" y="138" type="line"/>
      <point x="118" y="94" type="line"/>
      <point x="399" y="94" type="line" smooth="yes"/>
      <point x="456" y="94"/>
      <point x="484" y="73"/>
      <point x="484" y="17" type="curve" smooth="yes"/>
    </contour>
    <contour>
      <point x="273" y="159" type="curve"/>
      <point x="317" y="190" type="line"/>
      <point x="316" y="257"/>
      <point x="297" y="297"/>
      <point x="238" y="350" type="curve" smooth="yes"/>
      <point x="180" y="402"/>
      <point x="160" y="444"/>
      <point x="160" y="507" type="curve" smooth="yes"/>
      <point x="160" y="616"/>
      <point x="216" y="679"/>
      <point x="308" y="679" type="curve" smooth="yes"/>
      <point x="405" y="679"/>
      <point x="462" y="623"/>
      <point x="462" y="488" type="curve" smooth="yes"/>
      <point x="462" y="359"/>
      <point x="393" y="253"/>
      <point x="300" y="183" type="curve" smooth="yes"/>
      <point x="264" y="156"/>
      <point x="219" y="138"/>
      <point x="165" y="138" type="curve"/>
      <point x="306" y="138" type="line"/>
      <point x="475" y="225"/>
      <point x="568" y="343"/>
      <point x="568" y="487" type="curve" smooth="yes"/>
      <point x="568" y="641"/>
      <point x="468" y="726"/>
      <point x="308" y="726" type="curve" smooth="yes"/>
      <point x="149" y="726"/>
      <point x="54" y="631"/>
      <point x="54" y="496" type="curve" smooth="yes"/>
      <point x="54" y="409"/>
      <point x="86" y="360"/>
      <point x="185" y="301" type="curve" smooth="yes"/>
      <point x="251" y="262"/>
      <point x="273" y="222"/>
    </contour>
  </outline>
</glyph>
<glyph name="uni054C" format="2">
  <advance width="809"/>
  <unicode hex="054C"/>
  <note>
uni054C
</note>
  <outline>
    <contour>
      <point x="251" y="0" type="line"/>
      <point x="251" y="37" type="line"/>
      <point x="207" y="37"/>
      <point x="201" y="48"/>
      <point x="201" y="111" type="curve" smooth="yes"/>
      <point x="201" y="507" type="line" smooth="yes"/>
      <point x="201" y="612"/>
      <point x="253" y="677"/>
      <point x="359" y="677" type="curve" smooth="yes"/>
      <point x="457" y="677"/>
      <point x="515" y="622"/>
      <point x="515" y="511" type="curve" smooth="yes"/>
      <point x="515" y="0" type="line"/>
      <point x="667" y="0" type="line"/>
      <point x="667" y="37" type="line"/>
      <point x="623" y="37"/>
      <point x="616" y="48"/>
      <point x="616" y="111" type="curve" smooth="yes"/>
      <point x="616" y="495" type="line" smooth="yes"/>
      <point x="616" y="650"/>
      <point x="518" y="724"/>
      <point x="358" y="724" type="curve" smooth="yes"/>
      <point x="190" y="724"/>
      <point x="100" y="639"/>
      <point x="100" y="493" type="curve" smooth="yes"/>
      <point x="100" y="0" type="line"/>
    </contour>
    <contour>
      <point x="600" y="404" type="curve"/>
      <point x="599" y="353" type="line"/>
      <point x="609" y="357"/>
      <point x="628" y="360"/>
      <point x="643" y="360" type="curve" smooth="yes"/>
      <point x="690" y="360"/>
      <point x="708" y="341"/>
      <point x="708" y="264" type="curve" smooth="yes"/>
      <point x="708" y="186" type="line"/>
      <point x="804" y="186" type="line"/>
      <point x="804" y="262" type="line" smooth="yes"/>
      <point x="804" y="374"/>
      <point x="759" y="411"/>
      <point x="662" y="411" type="curve" smooth="yes"/>
      <point x="640" y="411"/>
      <point x="621" y="408"/>
    </contour>
  </outline>
</glyph>
<glyph name="uni054D" format="2">
  <advance width="718"/>
  <unicode hex="054D"/>
  <note>
uni054D
</note>
  <outline>
    <contour>
      <point x="466" y="714" type="line"/>
      <point x="466" y="677" type="line"/>
      <point x="510" y="677"/>
      <point x="516" y="666"/>
      <point x="516" y="603" type="curve" smooth="yes"/>
      <point x="516" y="207" type="line" smooth="yes"/>
      <point x="516" y="106"/>
      <point x="464" y="37"/>
      <point x="358" y="37" type="curve" smooth="yes"/>
      <point x="259" y="37"/>
      <point x="201" y="92"/>
      <point x="201" y="203" type="curve" smooth="yes"/>
      <point x="201" y="714" type="line"/>
      <point x="50" y="714" type="line"/>
      <point x="50" y="677" type="line"/>
      <point x="94" y="677"/>
      <point x="100" y="666"/>
      <point x="100" y="603" type="curve" smooth="yes"/>
      <point x="100" y="219" type="line" smooth="yes"/>
      <point x="100" y="64"/>
      <point x="199" y="-10"/>
      <point x="359" y="-10" type="curve" smooth="yes"/>
      <point x="526" y="-10"/>
      <point x="617" y="80"/>
      <point x="617" y="221" type="curve" smooth="yes"/>
      <point x="617" y="714" type="line"/>
    </contour>
  </outline>
</glyph>
<glyph name="uni054E" format="2">
  <advance width="743"/>
  <unicode hex="054E"/>
  <note>
uni054E
</note>
  <outline>
    <contour>
      <point x="408" y="714" type="line"/>
      <point x="408" y="677" type="line"/>
      <point x="452" y="677"/>
      <point x="458" y="666"/>
      <point x="458" y="603" type="curve" smooth="yes"/>
      <point x="458" y="396" type="line" smooth="yes"/>
      <point x="458" y="289"/>
      <point x="412" y="207"/>
      <point x="312" y="207" type="curve" smooth="yes"/>
      <point x="236" y="207"/>
      <point x="189" y="250"/>
      <point x="189" y="359" type="curve" smooth="yes"/>
      <point x="189" y="479" type="line"/>
      <point x="38" y="479" type="line"/>
      <point x="38" y="441" type="line"/>
      <point x="82" y="441"/>
      <point x="88" y="431"/>
      <point x="88" y="379" type="curve" smooth="yes"/>
      <point x="88" y="357" type="line" smooth="yes"/>
      <point x="88" y="220"/>
      <point x="159" y="157"/>
      <point x="290" y="157" type="curve" smooth="yes"/>
      <point x="377" y="157"/>
      <point x="424" y="190"/>
      <point x="457" y="245" type="curve"/>
      <point x="462" y="245" type="line"/>
      <point x="459" y="215"/>
      <point x="458" y="184"/>
      <point x="458" y="152" type="curve" smooth="yes"/>
      <point x="458" y="0" type="line"/>
      <point x="559" y="0" type="line"/>
      <point x="559" y="714" type="line"/>
    </contour>
    <contour>
      <point x="548" y="0" type="line"/>
      <point x="738" y="0" type="line"/>
      <point x="738" y="45" type="line"/>
      <point x="548" y="45" type="line"/>
    </contour>
  </outline>
</glyph>
<glyph name="uni054F" format="2">
  <advance width="585"/>
  <unicode hex="054F"/>
  <note>
uni054F
</note>
  <outline>
    <contour>
      <point x="280" y="-10" type="curve" smooth="yes"/>
      <point x="446" y="-10"/>
      <point x="537" y="74"/>
      <point x="537" y="191" type="curve" smooth="yes"/>
      <point x="537" y="286"/>
      <point x="484" y="338"/>
      <point x="323" y="404" type="curve" smooth="yes"/>
      <point x="177" y="464"/>
      <point x="145" y="504"/>
      <point x="145" y="566" type="curve" smooth="yes"/>
      <point x="145" y="630"/>
      <point x="196" y="677"/>
      <point x="277" y="677" type="curve" smooth="yes"/>
      <point x="376" y="677"/>
      <point x="418" y="631"/>
      <point x="418" y="545" type="curve"/>
      <point x="470" y="545"/>
      <point x="500" y="568"/>
      <point x="500" y="611" type="curve" smooth="yes"/>
      <point x="500" y="676"/>
      <point x="425" y="724"/>
      <point x="286" y="724" type="curve" smooth="yes"/>
      <point x="149" y="724"/>
      <point x="59" y="647"/>
      <point x="59" y="539" type="curve" smooth="yes"/>
      <point x="59" y="449"/>
      <point x="100" y="392"/>
      <point x="265" y="324" type="curve" smooth="yes"/>
      <point x="393" y="271"/>
      <point x="450" y="234"/>
      <point x="450" y="162" type="curve" smooth="yes"/>
      <point x="450" y="91"/>
      <point x="400" y="37"/>
      <point x="294" y="37" type="curve" smooth="yes"/>
      <point x="183" y="37"/>
      <point x="129" y="93"/>
      <point x="129" y="198" type="curve"/>
      <point x="82" y="198"/>
      <point x="44" y="177"/>
      <point x="44" y="128" type="curve" smooth="yes"/>
      <point x="44" y="62"/>
      <point x="111" y="-10"/>
    </contour>
  </outline>
</glyph>
<glyph name="uni0550" format="2">
  <advance width="670"/>
  <unicode hex="0550"/>
  <note>
uni0550
</note>
  <outline>
    <contour>
      <point x="350" y="724" type="curve" smooth="yes"/>
      <point x="191" y="724"/>
      <point x="101" y="634"/>
      <point x="101" y="493" type="curve" smooth="yes"/>
      <point x="101" y="0" type="line"/>
      <point x="252" y="0" type="line"/>
      <point x="252" y="37" type="line"/>
      <point x="208" y="37"/>
      <point x="202" y="48"/>
      <point x="202" y="111" type="curve" smooth="yes"/>
      <point x="202" y="507" type="line" smooth="yes"/>
      <point x="202" y="608"/>
      <point x="254" y="677"/>
      <point x="351" y="677" type="curve" smooth="yes"/>
      <point x="445" y="677"/>
      <point x="503" y="622"/>
      <point x="503" y="511" type="curve" smooth="yes"/>
      <point x="503" y="350" type="line"/>
      <point x="604" y="350" type="line"/>
      <point x="604" y="495" type="line" smooth="yes"/>
      <point x="604" y="650"/>
      <point x="506" y="724"/>
    </contour>
  </outline>
</glyph>
<glyph name="uni0551" format="2">
  <advance width="576"/>
  <unicode hex="0551"/>
  <note>
uni0551
</note>
  <outline>
    <contour>
      <point x="342" y="391" type="curve"/>
      <point x="342" y="394" type="line"/>
      <point x="454" y="423"/>
      <point x="508" y="475"/>
      <point x="508" y="562" type="curve" smooth="yes"/>
      <point x="508" y="654"/>
      <point x="439" y="725"/>
      <point x="282" y="725" type="curve" smooth="yes"/>
      <point x="107" y="725"/>
      <point x="52" y="631"/>
      <point x="52" y="558" type="curve" smooth="yes"/>
      <point x="52" y="476"/>
      <point x="88" y="428"/>
      <point x="193" y="391" type="curve"/>
      <point x="193" y="387" type="line"/>
      <point x="32" y="350" type="line"/>
      <point x="49" y="279" type="line"/>
      <point x="264" y="364" type="line"/>
      <point x="371" y="335"/>
      <point x="430" y="289"/>
      <point x="430" y="188" type="curve" smooth="yes"/>
      <point x="430" y="92"/>
      <point x="370" y="38"/>
      <point x="270" y="38" type="curve" smooth="yes"/>
      <point x="169" y="38"/>
      <point x="119" y="84"/>
      <point x="119" y="203" type="curve"/>
      <point x="69" y="203"/>
      <point x="28" y="184"/>
      <point x="28" y="138" type="curve" smooth="yes"/>
      <point x="28" y="56"/>
      <point x="109" y="-10"/>
      <point x="273" y="-10" type="curve" smooth="yes"/>
      <point x="441" y="-10"/>
      <point x="537" y="72"/>
      <point x="537" y="187" type="curve" smooth="yes"/>
      <point x="537" y="297"/>
      <point x="473" y="361"/>
    </contour>
    <contour>
      <point x="150" y="558" type="curve" smooth="yes"/>
      <point x="150" y="617"/>
      <point x="182" y="677"/>
      <point x="281" y="677" type="curve" smooth="yes"/>
      <point x="366" y="677"/>
      <point x="409" y="631"/>
      <point x="409" y="561" type="curve" smooth="yes"/>
      <point x="409" y="490"/>
      <point x="372" y="444"/>
      <point x="275" y="413" type="curve"/>
      <point x="175" y="444"/>
      <point x="150" y="490"/>
    </contour>
  </outline>
</glyph>
<glyph name="uni0552" format="2">
  <advance width="614"/>
  <unicode hex="0552"/>
  <note>
uni0552
</note>
  <outline>
    <contour>
      <point x="201" y="517" type="line"/>
      <point x="201" y="472" type="line"/>
      <point x="248" y="472" type="line" smooth="yes"/>
      <point x="300" y="472"/>
      <point x="313" y="461"/>
      <point x="367" y="340" type="curve" smooth="yes"/>
      <point x="423" y="215"/>
      <point x="451" y="201"/>
      <point x="524" y="201" type="curve" smooth="yes"/>
      <point x="596" y="201" type="line"/>
      <point x="596" y="245" type="line"/>
      <point x="575" y="245" type="line" smooth="yes"/>
      <point x="528" y="245"/>
      <point x="517" y="254"/>
      <point x="461" y="377" type="curve" smooth="yes"/>
      <point x="405" y="499"/>
      <point x="380" y="517"/>
      <point x="268" y="517" type="curve" smooth="yes"/>
    </contour>
    <contour>
      <point x="209" y="109" type="curve" smooth="yes"/>
      <point x="209" y="714" type="line"/>
      <point x="58" y="714" type="line"/>
      <point x="58" y="677" type="line"/>
      <point x="102" y="677"/>
      <point x="108" y="668"/>
      <point x="108" y="605" type="curve" smooth="yes"/>
      <point x="108" y="0" type="line"/>
      <point x="260" y="0" type="line"/>
      <point x="260" y="37" type="line"/>
      <point x="216" y="37"/>
      <point x="209" y="46"/>
    </contour>
  </outline>
</glyph>
<glyph name="uni0553" format="2">
  <advance width="759"/>
  <unicode hex="0553"/>
  <note>
uni0553
</note>
  <outline>
    <contour>
      <point x="451" y="134" type="line" smooth="yes"/>
      <point x="638" y="134"/>
      <point x="715" y="233"/>
      <point x="715" y="367" type="curve" smooth="yes"/>
      <point x="715" y="497"/>
      <point x="635" y="590"/>
      <point x="467" y="590" type="curve" smooth="yes"/>
      <point x="426" y="590" type="line"/>
      <point x="426" y="714" type="line"/>
      <point x="284" y="714" type="line"/>
      <point x="284" y="675" type="line"/>
      <point x="322" y="675"/>
      <point x="332" y="670"/>
      <point x="332" y="613" type="curve" smooth="yes"/>
      <point x="332" y="590" type="line"/>
      <point x="292" y="590" type="line" smooth="yes"/>
      <point x="124" y="590"/>
      <point x="43" y="497"/>
      <point x="43" y="367" type="curve" smooth="yes"/>
      <point x="43" y="233"/>
      <point x="121" y="134"/>
      <point x="305" y="134" type="curve" smooth="yes"/>
      <point x="332" y="134" type="line"/>
      <point x="332" y="0" type="line"/>
      <point x="475" y="0" type="line"/>
      <point x="475" y="39" type="line"/>
      <point x="435" y="39"/>
      <point x="426" y="45"/>
      <point x="426" y="100" type="curve" smooth="yes"/>
      <point x="426" y="134" type="line"/>
    </contour>
    <contour>
      <point x="332" y="178" type="line"/>
      <point x="306" y="178" type="line" smooth="yes"/>
      <point x="207" y="178"/>
      <point x="140" y="234"/>
      <point x="140" y="365" type="curve" smooth="yes"/>
      <point x="140" y="483"/>
      <point x="204" y="546"/>
      <point x="299" y="546" type="curve" smooth="yes"/>
      <point x="332" y="546" type="line"/>
    </contour>
    <contour>
      <point x="427" y="546" type="line"/>
      <point x="460" y="546" type="line" smooth="yes"/>
      <point x="555" y="546"/>
      <point x="619" y="483"/>
      <point x="619" y="365" type="curve" smooth="yes"/>
      <point x="619" y="234"/>
      <point x="552" y="178"/>
      <point x="450" y="178" type="curve" smooth="yes"/>
      <point x="427" y="178" type="line"/>
    </contour>
  </outline>
</glyph>
<glyph name="uni0554" format="2">
  <advance width="585"/>
  <unicode hex="0554"/>
  <note>
uni0554
</note>
  <outline>
    <contour>
      <point x="101" y="0" type="line"/>
      <point x="202" y="0" type="line"/>
      <point x="202" y="348" type="line"/>
      <point x="301" y="348" type="line" smooth="yes"/>
      <point x="453" y="348"/>
      <point x="531" y="415"/>
      <point x="531" y="533" type="curve" smooth="yes"/>
      <point x="531" y="658"/>
      <point x="460" y="724"/>
      <point x="317" y="724" type="curve" smooth="yes"/>
      <point x="177" y="724"/>
      <point x="101" y="651"/>
      <point x="101" y="502" type="curve" smooth="yes"/>
    </contour>
    <contour>
      <point x="290" y="393" type="curve" smooth="yes"/>
      <point x="202" y="393" type="line"/>
      <point x="202" y="501" type="line" smooth="yes"/>
      <point x="202" y="629"/>
      <point x="237" y="678"/>
      <point x="317" y="678" type="curve" smooth="yes"/>
      <point x="395" y="678"/>
      <point x="430" y="628"/>
      <point x="430" y="536" type="curve" smooth="yes"/>
      <point x="430" y="441"/>
      <point x="373" y="393"/>
    </contour>
    <contour>
      <point x="18" y="211" type="line"/>
      <point x="528" y="211" type="line"/>
      <point x="528" y="256" type="line"/>
      <point x="18" y="256" type="line"/>
    </contour>
  </outline>
</glyph>
<glyph name="uni0555" format="2">
  <advance width="742"/>
  <unicode hex="0555"/>
  <note>
uni0555
</note>
  <anchor x="371" y="714" name="top"/>
  <outline>
    <contour>
      <point x="371" y="-10" type="curve" smooth="yes"/>
      <point x="582" y="-10"/>
      <point x="686" y="136"/>
      <point x="686" y="358" type="curve" smooth="yes"/>
      <point x="686" y="584"/>
      <point x="583" y="725"/>
      <point x="372" y="725" type="curve" smooth="yes"/>
      <point x="162" y="725"/>
      <point x="56" y="585"/>
      <point x="56" y="359" type="curve" smooth="yes"/>
      <point x="56" y="132"/>
      <point x="160" y="-10"/>
    </contour>
    <contour>
      <point x="372" y="37" type="curve" smooth="yes"/>
      <point x="227" y="37"/>
      <point x="163" y="156"/>
      <point x="163" y="358" type="curve" smooth="yes"/>
      <point x="163" y="560"/>
      <point x="227" y="678"/>
      <point x="373" y="678" type="curve" smooth="yes"/>
      <point x="524" y="678"/>
      <point x="579" y="560"/>
      <point x="579" y="358" type="curve" smooth="yes"/>
      <point x="579" y="157"/>
      <point x="521" y="37"/>
    </contour>
  </outline>
</glyph>
<glyph name="uni0556" format="2">
  <advance width="672"/>
  <unicode hex="0556"/>
  <note>
uni0556
</note>
  <outline>
    <contour>
      <point x="331" y="-10" type="curve" smooth="yes"/>
      <point x="544" y="-10"/>
      <point x="624" y="76"/>
      <point x="624" y="189" type="curve" smooth="yes"/>
      <point x="624" y="312"/>
      <point x="559" y="377"/>
      <point x="343" y="404" type="curve" smooth="yes"/>
      <point x="185" y="424"/>
      <point x="156" y="467"/>
      <point x="156" y="553" type="curve" smooth="yes"/>
      <point x="156" y="630"/>
      <point x="200" y="678"/>
      <point x="293" y="678" type="curve"/>
      <point x="293" y="724" type="line"/>
      <point x="149" y="724"/>
      <point x="64" y="652"/>
      <point x="64" y="553" type="curve" smooth="yes"/>
      <point x="64" y="439"/>
      <point x="116" y="385"/>
      <point x="303" y="362" type="curve" smooth="yes"/>
      <point x="486" y="339"/>
      <point x="532" y="290"/>
      <point x="532" y="184" type="curve" smooth="yes"/>
      <point x="532" y="91"/>
      <point x="479" y="35"/>
      <point x="320" y="35" type="curve" smooth="yes"/>
      <point x="173" y="35"/>
      <point x="109" y="89"/>
      <point x="109" y="204" type="curve"/>
      <point x="69" y="204"/>
      <point x="35" y="179"/>
      <point x="35" y="135" type="curve" smooth="yes"/>
      <point x="35" y="61"/>
      <point x="116" y="-10"/>
    </contour>
    <contour>
      <point x="293" y="724" type="line"/>
      <point x="293" y="5" type="line"/>
      <point x="386" y="5" type="line"/>
      <point x="386" y="724" type="line"/>
    </contour>
  </outline>
</glyph>
<glyph name="uni0559" format="2">
  <advance width="233"/>
  <unicode hex="0559"/>
  <note>
uni0559
</note>
  <outline>
    <contour>
      <point x="178" y="480" type="curve"/>
      <point x="178" y="566" type="line"/>
      <point x="135" y="567"/>
      <point x="115" y="590"/>
      <point x="115" y="627" type="curve" smooth="yes"/>
      <point x="115" y="665"/>
      <point x="138" y="699"/>
      <point x="185" y="724" type="curve"/>
      <point x="167" y="760" type="line"/>
      <point x="93" y="728"/>
      <point x="48" y="668"/>
      <point x="48" y="599" type="curve" smooth="yes"/>
      <point x="48" y="528"/>
      <point x="91" y="482"/>
    </contour>
  </outline>
</glyph>
<glyph name="uni055A" format="2">
  <advance width="233"/>
  <unicode hex="055A"/>
  <note>
uni055A
</note>
  <outline>
    <contour>
      <point x="55" y="760" type="curve"/>
      <point x="55" y="675" type="line"/>
      <point x="98" y="673"/>
      <point x="118" y="650"/>
      <point x="118" y="615" type="curve" smooth="yes"/>
      <point x="118" y="575"/>
      <point x="94" y="542"/>
      <point x="48" y="517" type="curve"/>
      <point x="66" y="480" type="line"/>
      <point x="139" y="513"/>
      <point x="185" y="572"/>
      <point x="185" y="642" type="curve" smooth="yes"/>
      <point x="185" y="713"/>
      <point x="142" y="759"/>
    </contour>
  </outline>
</glyph>
<glyph name="uni055B" format="2">
  <advance width="261"/>
  <unicode hex="055B"/>
  <note>
uni055B
</note>
  <outline>
    <contour>
      <point x="72" y="603" type="line"/>
      <point x="128" y="603" type="line"/>
      <point x="158" y="673"/>
      <point x="181" y="742"/>
      <point x="199" y="803" type="curve"/>
      <point x="192" y="814" type="line"/>
      <point x="119" y="814" type="line"/>
      <point x="116" y="788"/>
      <point x="105" y="742"/>
      <point x="94" y="700" type="curve" smooth="yes"/>
      <point x="72" y="618" type="line"/>
    </contour>
  </outline>
</glyph>
<glyph name="uni055C" format="2">
  <advance width="289"/>
  <unicode hex="055C"/>
  <note>
uni055C
</note>
  <outline>
    <contour>
      <point x="95" y="603" type="curve"/>
      <point x="162" y="603" type="line"/>
      <point x="162" y="615" type="line" smooth="yes"/>
      <point x="162" y="646"/>
      <point x="174" y="665"/>
      <point x="208" y="686" type="curve" smooth="yes"/>
      <point x="266" y="721"/>
      <point x="275" y="740"/>
      <point x="275" y="814" type="curve"/>
      <point x="208" y="814" type="line"/>
      <point x="208" y="796" type="line" smooth="yes"/>
      <point x="208" y="760"/>
      <point x="198" y="748"/>
      <point x="170" y="731" type="curve" smooth="yes"/>
      <point x="110" y="694"/>
      <point x="95" y="674"/>
    </contour>
  </outline>
</glyph>
<glyph name="uni055D" format="2">
  <advance width="261"/>
  <unicode hex="055D"/>
  <note>
uni055D
</note>
  <outline>
    <contour>
      <point x="189" y="603" type="line"/>
      <point x="189" y="618" type="line"/>
      <point x="167" y="700" type="line" smooth="yes"/>
      <point x="156" y="742"/>
      <point x="145" y="788"/>
      <point x="141" y="814" type="curve"/>
      <point x="69" y="814" type="line"/>
      <point x="62" y="803" type="line"/>
      <point x="80" y="742"/>
      <point x="103" y="673"/>
      <point x="133" y="603" type="curve"/>
    </contour>
  </outline>
</glyph>
<glyph name="uni055E" format="2">
  <advance width="425"/>
  <unicode hex="055E"/>
  <note>
uni055E
</note>
  <outline>
    <contour>
      <point x="84" y="616" type="curve"/>
      <point x="164" y="616" type="line"/>
      <point x="164" y="706"/>
      <point x="193" y="776"/>
      <point x="262" y="776" type="curve" smooth="yes"/>
      <point x="294" y="776"/>
      <point x="314" y="759"/>
      <point x="314" y="730" type="curve" smooth="yes"/>
      <point x="314" y="700"/>
      <point x="297" y="685"/>
      <point x="263" y="685" type="curve" smooth="yes"/>
      <point x="246" y="685"/>
      <point x="234" y="689"/>
      <point x="223" y="694" type="curve"/>
      <point x="223" y="656"/>
      <point x="251" y="634"/>
      <point x="297" y="634" type="curve" smooth="yes"/>
      <point x="358" y="634"/>
      <point x="395" y="669"/>
      <point x="395" y="726" type="curve" smooth="yes"/>
      <point x="395" y="786"/>
      <point x="345" y="827"/>
      <point x="268" y="827" type="curve" smooth="yes"/>
      <point x="158" y="827"/>
      <point x="84" y="745"/>
    </contour>
  </outline>
</glyph>
<glyph name="uni055F" format="2">
  <advance width="423"/>
  <unicode hex="055F"/>
  <note>
uni055F
</note>
  <outline>
    <contour>
      <point x="211" y="607" type="curve" smooth="yes"/>
      <point x="376" y="607" type="line"/>
      <point x="376" y="660" type="line"/>
      <point x="224" y="660" type="line" smooth="yes"/>
      <point x="159" y="660"/>
      <point x="137" y="679"/>
      <point x="137" y="714" type="curve" smooth="yes"/>
      <point x="137" y="748"/>
      <point x="159" y="766"/>
      <point x="195" y="766" type="curve" smooth="yes"/>
      <point x="213" y="766"/>
      <point x="232" y="761"/>
      <point x="244" y="756" type="curve"/>
      <point x="244" y="792"/>
      <point x="217" y="821"/>
      <point x="169" y="821" type="curve" smooth="yes"/>
      <point x="105" y="821"/>
      <point x="62" y="780"/>
      <point x="62" y="714" type="curve" smooth="yes"/>
      <point x="62" y="646"/>
      <point x="111" y="607"/>
    </contour>
  </outline>
</glyph>
<glyph name="uni0560" format="2">
  <advance width="872"/>
  <unicode hex="0560"/>
  <note>
uni0561
</note>
  <anchor x="435" y="492" name="top"/>
  <outline>
    <contour>
      <point x="239" y="0" type="line"/>
      <point x="239" y="39" type="line"/>
      <point x="189" y="39"/>
      <point x="186" y="47"/>
      <point x="186" y="99" type="curve" smooth="yes"/>
      <point x="186" y="276" type="line" smooth="yes"/>
      <point x="186" y="365"/>
      <point x="219" y="443"/>
      <point x="297" y="443" type="curve" smooth="yes"/>
      <point x="366" y="443"/>
      <point x="391" y="392"/>
      <point x="391" y="301" type="curve" smooth="yes"/>
      <point x="391" y="0" type="line"/>
      <point x="543" y="0" type="line"/>
      <point x="543" y="39" type="line"/>
      <point x="493" y="39"/>
      <point x="489" y="45"/>
      <point x="489" y="99" type="curve" smooth="yes"/>
      <point x="489" y="289" type="line" smooth="yes"/>
      <point x="489" y="374"/>
      <point x="522" y="444"/>
      <point x="602" y="444" type="curve" smooth="yes"/>
      <point x="673" y="444"/>
      <point x="695" y="392"/>
      <point x="695" y="301" type="curve" smooth="yes"/>
      <point x="695" y="0" type="line"/>
      <point x="846" y="0" type="line"/>
      <point x="846" y="39" type="line"/>
      <point x="797" y="39"/>
      <point x="792" y="43"/>
      <point x="792" y="95" type="curve" smooth="yes"/>
      <point x="792" y="314" type="line" smooth="yes"/>
      <point x="792" y="441"/>
      <point x="744" y="502"/>
      <point x="640" y="502" type="curve" smooth="yes"/>
      <point x="571" y="502"/>
      <point x="515" y="476"/>
      <point x="483" y="410" type="curve"/>
      <point x="477" y="410" type="line"/>
      <point x="457" y="467"/>
      <point x="413" y="502"/>
      <point x="333" y="502" type="curve" smooth="yes"/>
      <point x="268" y="502"/>
      <point x="221" y="483"/>
      <point x="188" y="411" type="curve"/>
      <point x="183" y="411" type="line"/>
      <point x="174" y="492" type="line"/>
      <point x="34" y="492" type="line"/>
      <point x="34" y="455" type="line"/>
      <point x="83" y="455"/>
      <point x="88" y="448"/>
      <point x="88" y="399" type="curve" smooth="yes"/>
      <point x="88" y="0" type="line"/>
    </contour>
  </outline>
</glyph>
<glyph name="uni0561" format="2">
  <advance width="872"/>
  <unicode hex="0561"/>
  <note>
uni0561
</note>
  <anchor x="432" y="492" name="top"/>
  <outline>
    <contour>
      <point x="633" y="492" type="line"/>
      <point x="633" y="453" type="line"/>
      <point x="683" y="453"/>
      <point x="686" y="445"/>
      <point x="686" y="393" type="curve" smooth="yes"/>
      <point x="686" y="216" type="line" smooth="yes"/>
      <point x="686" y="127"/>
      <point x="653" y="49"/>
      <point x="575" y="49" type="curve" smooth="yes"/>
      <point x="506" y="49"/>
      <point x="481" y="100"/>
      <point x="481" y="191" type="curve" smooth="yes"/>
      <point x="481" y="492" type="line"/>
      <point x="329" y="492" type="line"/>
      <point x="329" y="453" type="line"/>
      <point x="379" y="453"/>
      <point x="383" y="447"/>
      <point x="383" y="393" type="curve" smooth="yes"/>
      <point x="383" y="203" type="line" smooth="yes"/>
      <point x="383" y="118"/>
      <point x="350" y="48"/>
      <point x="270" y="48" type="curve" smooth="yes"/>
      <point x="199" y="48"/>
      <point x="177" y="100"/>
      <point x="177" y="191" type="curve" smooth="yes"/>
      <point x="177" y="492" type="line"/>
      <point x="26" y="492" type="line"/>
      <point x="26" y="453" type="line"/>
      <point x="75" y="453"/>
      <point x="80" y="449"/>
      <point x="80" y="397" type="curve" smooth="yes"/>
      <point x="80" y="178" type="line" smooth="yes"/>
      <point x="80" y="51"/>
      <point x="128" y="-10"/>
      <point x="232" y="-10" type="curve" smooth="yes"/>
      <point x="301" y="-10"/>
      <point x="357" y="16"/>
      <point x="389" y="82" type="curve"/>
      <point x="395" y="82" type="line"/>
      <point x="415" y="25"/>
      <point x="459" y="-10"/>
      <point x="539" y="-10" type="curve" smooth="yes"/>
      <point x="604" y="-10"/>
      <point x="651" y="9"/>
      <point x="684" y="81" type="curve"/>
      <point x="689" y="81" type="line"/>
      <point x="698" y="0" type="line"/>
      <point x="838" y="0" type="line"/>
      <point x="838" y="37" type="line"/>
      <point x="789" y="37"/>
      <point x="784" y="44"/>
      <point x="784" y="93" type="curve" smooth="yes"/>
      <point x="784" y="492" type="line"/>
    </contour>
  </outline>
</glyph>
<glyph name="uni0562" format="2">
  <advance width="557"/>
  <unicode hex="0562"/>
  <note>
uni0562
</note>
  <outline>
    <contour>
      <point x="186" y="-167" type="curve" smooth="yes"/>
      <point x="186" y="276" type="line" smooth="yes"/>
      <point x="186" y="361"/>
      <point x="207" y="443"/>
      <point x="288" y="443" type="curve" smooth="yes"/>
      <point x="357" y="443"/>
      <point x="380" y="395"/>
      <point x="380" y="301" type="curve" smooth="yes"/>
      <point x="380" y="214" type="line"/>
      <point x="532" y="214" type="line"/>
      <point x="532" y="253" type="line"/>
      <point x="482" y="253"/>
      <point x="478" y="259"/>
      <point x="478" y="306" type="curve" smooth="yes"/>
      <point x="478" y="323" type="line" smooth="yes"/>
      <point x="478" y="443"/>
      <point x="426" y="502"/>
      <point x="327" y="502" type="curve" smooth="yes"/>
      <point x="263" y="502"/>
      <point x="221" y="483"/>
      <point x="187" y="416" type="curve"/>
      <point x="183" y="416" type="line"/>
      <point x="174" y="492" type="line"/>
      <point x="32" y="492" type="line"/>
      <point x="32" y="453" type="line"/>
      <point x="79" y="453"/>
      <point x="88" y="446"/>
      <point x="88" y="394" type="curve" smooth="yes"/>
      <point x="88" y="-265" type="line"/>
      <point x="239" y="-265" type="line"/>
      <point x="239" y="-226" type="line"/>
      <point x="190" y="-226"/>
      <point x="186" y="-220"/>
    </contour>
    <contour>
      <point x="175" y="0" type="line"/>
      <point x="495" y="0" type="line"/>
      <point x="495" y="45" type="line"/>
      <point x="175" y="45" type="line"/>
    </contour>
  </outline>
</glyph>
<glyph name="uni0563" format="2">
  <advance width="612"/>
  <unicode hex="0563"/>
  <note>
uni0563
</note>
  <outline>
    <contour>
      <point x="411" y="492" type="line"/>
      <point x="399" y="409" type="line"/>
      <point x="393" y="409" type="line"/>
      <point x="366" y="471"/>
      <point x="323" y="502"/>
      <point x="255" y="502" type="curve" smooth="yes"/>
      <point x="128" y="502"/>
      <point x="61" y="414"/>
      <point x="61" y="246" type="curve" smooth="yes"/>
      <point x="61" y="74"/>
      <point x="129" y="-9"/>
      <point x="249" y="-9" type="curve" smooth="yes"/>
      <point x="319" y="-9"/>
      <point x="360" y="24"/>
      <point x="390" y="85" type="curve"/>
      <point x="396" y="85" type="line"/>
      <point x="391" y="40"/>
      <point x="390" y="1"/>
      <point x="390" y="-44" type="curve" smooth="yes"/>
      <point x="390" y="-265" type="line"/>
      <point x="540" y="-265" type="line"/>
      <point x="540" y="-228" type="line"/>
      <point x="493" y="-228"/>
      <point x="488" y="-222"/>
      <point x="488" y="-165" type="curve" smooth="yes"/>
      <point x="488" y="492" type="line"/>
    </contour>
    <contour>
      <point x="273" y="43" type="curve" smooth="yes"/>
      <point x="188" y="43"/>
      <point x="159" y="123"/>
      <point x="159" y="245" type="curve" smooth="yes"/>
      <point x="159" y="366"/>
      <point x="189" y="449"/>
      <point x="277" y="449" type="curve" smooth="yes"/>
      <point x="356" y="449"/>
      <point x="393" y="379"/>
      <point x="393" y="245" type="curve" smooth="yes"/>
      <point x="393" y="93"/>
      <point x="341" y="43"/>
    </contour>
    <contour>
      <point x="460" y="0" type="line"/>
      <point x="607" y="0" type="line"/>
      <point x="607" y="46" type="line"/>
      <point x="460" y="46" type="line"/>
    </contour>
  </outline>
</glyph>
<glyph name="uni0565" format="2">
  <advance width="566"/>
  <unicode hex="0565"/>
  <note>
uni0565
</note>
  <outline>
    <contour>
      <point x="478" y="318" type="line"/>
      <point x="381" y="318" type="line"/>
      <point x="381" y="216" type="line" smooth="yes"/>
      <point x="381" y="127"/>
      <point x="351" y="47"/>
      <point x="271" y="47" type="curve" smooth="yes"/>
      <point x="199" y="47"/>
      <point x="178" y="106"/>
      <point x="178" y="196" type="curve" smooth="yes"/>
      <point x="178" y="760" type="line"/>
      <point x="27" y="760" type="line"/>
      <point x="27" y="721" type="line"/>
      <point x="76" y="721"/>
      <point x="80" y="715"/>
      <point x="80" y="660" type="curve" smooth="yes"/>
      <point x="80" y="182" type="line" smooth="yes"/>
      <point x="80" y="48"/>
      <point x="134" y="-12"/>
      <point x="233" y="-12" type="curve" smooth="yes"/>
      <point x="305" y="-12"/>
      <point x="344" y="12"/>
      <point x="379" y="80" type="curve"/>
      <point x="384" y="80" type="line"/>
      <point x="392" y="0" type="line"/>
      <point x="532" y="0" type="line"/>
      <point x="532" y="39" type="line"/>
      <point x="488" y="39"/>
      <point x="478" y="46"/>
      <point x="478" y="98" type="curve" smooth="yes"/>
    </contour>
    <contour>
      <point x="158" y="447" type="line"/>
      <point x="527" y="447" type="line"/>
      <point x="527" y="492" type="line"/>
      <point x="158" y="492" type="line"/>
    </contour>
  </outline>
</glyph>
<glyph name="uni0566" format="2">
  <advance width="599"/>
  <unicode hex="0566"/>
  <note>
uni0566
</note>
  <outline>
    <contour>
      <point x="411" y="492" type="line"/>
      <point x="399" y="409" type="line"/>
      <point x="393" y="409" type="line"/>
      <point x="366" y="471"/>
      <point x="323" y="502"/>
      <point x="255" y="502" type="curve" smooth="yes"/>
      <point x="128" y="502"/>
      <point x="61" y="414"/>
      <point x="61" y="246" type="curve" smooth="yes"/>
      <point x="61" y="74"/>
      <point x="129" y="-9"/>
      <point x="249" y="-9" type="curve" smooth="yes"/>
      <point x="319" y="-9"/>
      <point x="360" y="24"/>
      <point x="390" y="85" type="curve"/>
      <point x="396" y="85" type="line"/>
      <point x="391" y="40"/>
      <point x="390" y="1"/>
      <point x="390" y="-44" type="curve" smooth="yes"/>
      <point x="390" y="-265" type="line"/>
      <point x="488" y="-265" type="line"/>
      <point x="488" y="492" type="line"/>
    </contour>
    <contour>
      <point x="273" y="43" type="curve" smooth="yes"/>
      <point x="188" y="43"/>
      <point x="159" y="123"/>
      <point x="159" y="245" type="curve" smooth="yes"/>
      <point x="159" y="366"/>
      <point x="189" y="449"/>
      <point x="277" y="449" type="curve" smooth="yes"/>
      <point x="356" y="449"/>
      <point x="393" y="379"/>
      <point x="393" y="245" type="curve" smooth="yes"/>
      <point x="393" y="93"/>
      <point x="341" y="43"/>
    </contour>
    <contour>
      <point x="472" y="-265" type="line"/>
      <point x="619" y="-265" type="line"/>
      <point x="619" y="-219" type="line"/>
      <point x="472" y="-219" type="line"/>
    </contour>
  </outline>
</glyph>
<glyph name="uni0567" format="2">
  <advance width="484"/>
  <unicode hex="0567"/>
  <note>
uni0567
</note>
  <outline>
    <contour>
      <point x="438" y="447" type="line"/>
      <point x="438" y="492" type="line"/>
      <point x="181" y="492" type="line"/>
      <point x="181" y="760" type="line"/>
      <point x="30" y="760" type="line"/>
      <point x="30" y="723" type="line"/>
      <point x="78" y="723"/>
      <point x="83" y="716"/>
      <point x="83" y="667" type="curve" smooth="yes"/>
      <point x="83" y="11" type="line"/>
      <point x="97" y="0" type="line"/>
      <point x="106" y="0" type="line"/>
      <point x="149" y="21"/>
      <point x="211" y="31"/>
      <point x="258" y="31" type="curve" smooth="yes"/>
      <point x="318" y="31"/>
      <point x="349" y="12"/>
      <point x="349" y="-29" type="curve" smooth="yes"/>
      <point x="349" y="-84"/>
      <point x="296" y="-113"/>
      <point x="190" y="-113" type="curve"/>
      <point x="190" y="-138"/>
      <point x="220" y="-161"/>
      <point x="266" y="-161" type="curve" smooth="yes"/>
      <point x="360" y="-161"/>
      <point x="435" y="-113"/>
      <point x="435" y="-31" type="curve" smooth="yes"/>
      <point x="435" y="39"/>
      <point x="383" y="83"/>
      <point x="291" y="83" type="curve" smooth="yes"/>
      <point x="255" y="83"/>
      <point x="211" y="76"/>
      <point x="181" y="60" type="curve"/>
      <point x="181" y="447" type="line"/>
    </contour>
  </outline>
</glyph>
<glyph name="uni0568" format="2">
  <advance width="572"/>
  <unicode hex="0568"/>
  <note>
uni0568
</note>
  <outline>
    <contour>
      <point x="487" y="100" type="curve" smooth="yes"/>
      <point x="487" y="313" type="line" smooth="yes"/>
      <point x="487" y="443"/>
      <point x="435" y="502"/>
      <point x="334" y="502" type="curve" smooth="yes"/>
      <point x="270" y="502"/>
      <point x="226" y="489"/>
      <point x="187" y="414" type="curve"/>
      <point x="183" y="414" type="line"/>
      <point x="174" y="492" type="line"/>
      <point x="32" y="492" type="line"/>
      <point x="32" y="453" type="line"/>
      <point x="79" y="453"/>
      <point x="88" y="446"/>
      <point x="88" y="394" type="curve" smooth="yes"/>
      <point x="88" y="-265" type="line"/>
      <point x="186" y="-265" type="line"/>
      <point x="186" y="276" type="line" smooth="yes"/>
      <point x="186" y="361"/>
      <point x="207" y="443"/>
      <point x="295" y="443" type="curve" smooth="yes"/>
      <point x="366" y="443"/>
      <point x="389" y="388"/>
      <point x="389" y="301" type="curve" smooth="yes"/>
      <point x="389" y="0" type="line"/>
      <point x="540" y="0" type="line"/>
      <point x="540" y="39" type="line"/>
      <point x="491" y="39"/>
      <point x="487" y="45"/>
    </contour>
    <contour>
      <point x="98" y="-265" type="line"/>
      <point x="545" y="-265" type="line"/>
      <point x="545" y="-220" type="line"/>
      <point x="98" y="-220" type="line"/>
    </contour>
  </outline>
</glyph>
<glyph name="uni0569" format="2">
  <advance width="653"/>
  <unicode hex="0569"/>
  <note>
uni0569
</note>
  <outline>
    <contour>
      <point x="100" y="-265" type="line"/>
      <point x="253" y="-265" type="line"/>
      <point x="253" y="-228" type="line"/>
      <point x="202" y="-228"/>
      <point x="197" y="-222"/>
      <point x="197" y="-160" type="curve" smooth="yes"/>
      <point x="197" y="250" type="line" smooth="yes"/>
      <point x="197" y="371"/>
      <point x="244" y="449"/>
      <point x="341" y="449" type="curve" smooth="yes"/>
      <point x="437" y="449"/>
      <point x="480" y="382"/>
      <point x="480" y="245" type="curve" smooth="yes"/>
      <point x="480" y="77"/>
      <point x="463" y="35"/>
      <point x="421" y="35" type="curve" smooth="yes"/>
      <point x="387" y="35"/>
      <point x="365" y="63"/>
      <point x="365" y="130" type="curve" smooth="yes"/>
      <point x="365" y="188"/>
      <point x="387" y="227"/>
      <point x="440" y="227" type="curve" smooth="yes"/>
      <point x="490" y="227"/>
      <point x="563" y="214"/>
      <point x="622" y="189" type="curve"/>
      <point x="637" y="228" type="line"/>
      <point x="572" y="257"/>
      <point x="501" y="272"/>
      <point x="426" y="272" type="curve" smooth="yes"/>
      <point x="335" y="272"/>
      <point x="278" y="221"/>
      <point x="278" y="135" type="curve" smooth="yes"/>
      <point x="278" y="40"/>
      <point x="325" y="-10"/>
      <point x="414" y="-10" type="curve" smooth="yes"/>
      <point x="528" y="-10"/>
      <point x="576" y="71"/>
      <point x="576" y="244" type="curve" smooth="yes"/>
      <point x="576" y="408"/>
      <point x="496" y="502"/>
      <point x="369" y="502" type="curve" smooth="yes"/>
      <point x="289" y="502"/>
      <point x="231" y="469"/>
      <point x="199" y="408" type="curve"/>
      <point x="194" y="408" type="line"/>
      <point x="186" y="492" type="line"/>
      <point x="44" y="492" type="line"/>
      <point x="44" y="455" type="line"/>
      <point x="92" y="455"/>
      <point x="100" y="447"/>
      <point x="100" y="387" type="curve" smooth="yes"/>
    </contour>
  </outline>
</glyph>
<glyph name="uni056A" format="2">
  <advance width="610"/>
  <unicode hex="056A"/>
  <note>
uni056A
</note>
  <outline>
    <contour>
      <point x="389" y="492" type="line"/>
      <point x="299" y="492" type="line" smooth="yes"/>
      <point x="151" y="490"/>
      <point x="56" y="414"/>
      <point x="56" y="244" type="curve" smooth="yes"/>
      <point x="56" y="81"/>
      <point x="133" y="-9"/>
      <point x="267" y="-9" type="curve" smooth="yes"/>
      <point x="410" y="-9"/>
      <point x="487" y="91"/>
      <point x="487" y="244" type="curve" smooth="yes"/>
      <point x="487" y="760" type="line"/>
      <point x="333" y="760" type="line"/>
      <point x="333" y="723" type="line"/>
      <point x="385" y="723"/>
      <point x="389" y="716"/>
      <point x="389" y="664" type="curve" smooth="yes"/>
    </contour>
    <contour>
      <point x="302" y="447" type="curve" smooth="yes"/>
      <point x="389" y="447" type="line"/>
      <point x="389" y="243" type="line" smooth="yes"/>
      <point x="389" y="128"/>
      <point x="369" y="36"/>
      <point x="273" y="36" type="curve" smooth="yes"/>
      <point x="188" y="36"/>
      <point x="155" y="130"/>
      <point x="155" y="245" type="curve" smooth="yes"/>
      <point x="155" y="395"/>
      <point x="217" y="447"/>
    </contour>
    <contour>
      <point x="478" y="492" type="line"/>
      <point x="478" y="447" type="line"/>
      <point x="604" y="447" type="line"/>
      <point x="604" y="492" type="line"/>
    </contour>
  </outline>
</glyph>
<glyph name="uni056B" format="2">
  <advance width="567"/>
  <unicode hex="056B"/>
  <note>
uni056B
</note>
  <outline>
    <contour>
      <point x="540" y="39" type="line"/>
      <point x="491" y="39"/>
      <point x="487" y="45"/>
      <point x="487" y="100" type="curve" smooth="yes"/>
      <point x="487" y="313" type="line" smooth="yes"/>
      <point x="487" y="443"/>
      <point x="435" y="502"/>
      <point x="334" y="502" type="curve" smooth="yes"/>
      <point x="270" y="502"/>
      <point x="225" y="489"/>
      <point x="187" y="414" type="curve"/>
      <point x="182" y="414" type="line"/>
      <point x="184" y="440"/>
      <point x="186" y="466"/>
      <point x="186" y="493" type="curve" smooth="yes"/>
      <point x="186" y="760" type="line"/>
      <point x="32" y="760" type="line"/>
      <point x="32" y="721" type="line"/>
      <point x="79" y="721"/>
      <point x="88" y="714"/>
      <point x="88" y="662" type="curve" smooth="yes"/>
      <point x="88" y="-265" type="line"/>
      <point x="239" y="-265" type="line"/>
      <point x="239" y="-226" type="line"/>
      <point x="190" y="-226"/>
      <point x="186" y="-220"/>
      <point x="186" y="-167" type="curve" smooth="yes"/>
      <point x="186" y="276" type="line" smooth="yes"/>
      <point x="186" y="361"/>
      <point x="207" y="443"/>
      <point x="295" y="443" type="curve" smooth="yes"/>
      <point x="366" y="443"/>
      <point x="389" y="388"/>
      <point x="389" y="301" type="curve" smooth="yes"/>
      <point x="389" y="0" type="line"/>
      <point x="540" y="0" type="line"/>
    </contour>
  </outline>
</glyph>
<glyph name="uni056C" format="2">
  <advance width="308"/>
  <unicode hex="056C"/>
  <note>
uni056C
</note>
  <outline>
    <contour>
      <point x="327" y="-162" type="line"/>
      <point x="286" y="-162" type="line"/>
      <point x="286" y="-217"/>
      <point x="279" y="-220"/>
      <point x="233" y="-220" type="curve" smooth="yes"/>
      <point x="184" y="-220" type="line"/>
      <point x="184" y="492" type="line"/>
      <point x="27" y="492" type="line"/>
      <point x="27" y="453" type="line"/>
      <point x="46" y="453" type="line" smooth="yes"/>
      <point x="80" y="453"/>
      <point x="86" y="447"/>
      <point x="86" y="407" type="curve" smooth="yes"/>
      <point x="86" y="-265" type="line"/>
      <point x="327" y="-265" type="line"/>
    </contour>
  </outline>
</glyph>
<glyph name="uni056D" format="2">
  <advance width="876"/>
  <unicode hex="056D"/>
  <note>
uni056D
</note>
  <outline>
    <contour>
      <point x="787" y="98" type="curve" smooth="yes"/>
      <point x="787" y="492" type="line"/>
      <point x="636" y="492" type="line"/>
      <point x="636" y="453" type="line"/>
      <point x="686" y="453"/>
      <point x="690" y="447"/>
      <point x="690" y="394" type="curve" smooth="yes"/>
      <point x="690" y="216" type="line" smooth="yes"/>
      <point x="690" y="127"/>
      <point x="660" y="47"/>
      <point x="580" y="47" type="curve" smooth="yes"/>
      <point x="508" y="47"/>
      <point x="487" y="106"/>
      <point x="487" y="196" type="curve" smooth="yes"/>
      <point x="487" y="313" type="line" smooth="yes"/>
      <point x="487" y="443"/>
      <point x="435" y="502"/>
      <point x="334" y="502" type="curve" smooth="yes"/>
      <point x="270" y="502"/>
      <point x="223" y="483"/>
      <point x="187" y="414" type="curve"/>
      <point x="182" y="414" type="line"/>
      <point x="184" y="439"/>
      <point x="186" y="465"/>
      <point x="186" y="491" type="curve" smooth="yes"/>
      <point x="186" y="760" type="line"/>
      <point x="32" y="760" type="line"/>
      <point x="32" y="721" type="line"/>
      <point x="79" y="721"/>
      <point x="88" y="714"/>
      <point x="88" y="662" type="curve" smooth="yes"/>
      <point x="88" y="-265" type="line"/>
      <point x="239" y="-265" type="line"/>
      <point x="239" y="-226" type="line"/>
      <point x="190" y="-226"/>
      <point x="186" y="-220"/>
      <point x="186" y="-167" type="curve" smooth="yes"/>
      <point x="186" y="276" type="line" smooth="yes"/>
      <point x="186" y="361"/>
      <point x="207" y="443"/>
      <point x="295" y="443" type="curve" smooth="yes"/>
      <point x="366" y="443"/>
      <point x="389" y="388"/>
      <point x="389" y="301" type="curve" smooth="yes"/>
      <point x="389" y="182" type="line" smooth="yes"/>
      <point x="389" y="48"/>
      <point x="443" y="-12"/>
      <point x="542" y="-12" type="curve" smooth="yes"/>
      <point x="614" y="-12"/>
      <point x="653" y="12"/>
      <point x="688" y="80" type="curve"/>
      <point x="693" y="80" type="line"/>
      <point x="701" y="0" type="line"/>
      <point x="841" y="0" type="line"/>
      <point x="841" y="39" type="line"/>
      <point x="797" y="39"/>
      <point x="787" y="46"/>
    </contour>
  </outline>
</glyph>
<glyph name="uni056E" format="2">
  <advance width="566"/>
  <unicode hex="056E"/>
  <note>
uni056E
</note>
  <outline>
    <contour>
      <point x="275" y="-10" type="curve" smooth="yes"/>
      <point x="420" y="-10"/>
      <point x="503" y="77"/>
      <point x="503" y="235" type="curve" smooth="yes"/>
      <point x="503" y="319"/>
      <point x="478" y="383"/>
      <point x="431" y="447" type="curve"/>
      <point x="550" y="447" type="line"/>
      <point x="550" y="492" type="line"/>
      <point x="288" y="492" type="line" smooth="yes"/>
      <point x="161" y="492"/>
      <point x="55" y="406"/>
      <point x="55" y="222" type="curve" smooth="yes"/>
      <point x="55" y="71"/>
      <point x="135" y="-10"/>
    </contour>
    <contour>
      <point x="275" y="37" type="curve" smooth="yes"/>
      <point x="198" y="37"/>
      <point x="154" y="94"/>
      <point x="154" y="222" type="curve" smooth="yes"/>
      <point x="154" y="379"/>
      <point x="199" y="447"/>
      <point x="308" y="447" type="curve" smooth="yes"/>
      <point x="330" y="447" type="line"/>
      <point x="377" y="394"/>
      <point x="404" y="321"/>
      <point x="404" y="234" type="curve" smooth="yes"/>
      <point x="404" y="97"/>
      <point x="353" y="37"/>
    </contour>
    <contour>
      <point x="307" y="481" type="curve"/>
      <point x="405" y="481" type="line"/>
      <point x="386" y="501"/>
      <point x="357" y="533"/>
      <point x="324" y="576" type="curve" smooth="yes"/>
      <point x="284" y="628"/>
      <point x="279" y="648"/>
      <point x="279" y="671" type="curve" smooth="yes"/>
      <point x="279" y="696"/>
      <point x="288" y="715"/>
      <point x="325" y="729" type="curve"/>
      <point x="310" y="754"/>
      <point x="284" y="768"/>
      <point x="256" y="768" type="curve" smooth="yes"/>
      <point x="208" y="768"/>
      <point x="172" y="736"/>
      <point x="172" y="689" type="curve" smooth="yes"/>
      <point x="172" y="663"/>
      <point x="180" y="634"/>
      <point x="223" y="578" type="curve" smooth="yes"/>
      <point x="251" y="542"/>
      <point x="279" y="509"/>
    </contour>
  </outline>
</glyph>
<glyph name="uni056F" format="2">
  <advance width="566"/>
  <unicode hex="056F"/>
  <note>
uni056F
</note>
  <outline>
    <contour>
      <point x="381" y="-265" type="line"/>
      <point x="532" y="-265" type="line"/>
      <point x="532" y="-226" type="line"/>
      <point x="488" y="-226"/>
      <point x="478" y="-219"/>
      <point x="478" y="-167" type="curve" smooth="yes"/>
      <point x="478" y="492" type="line"/>
      <point x="327" y="492" type="line"/>
      <point x="327" y="453" type="line"/>
      <point x="377" y="453"/>
      <point x="381" y="447"/>
      <point x="381" y="394" type="curve" smooth="yes"/>
      <point x="381" y="216" type="line" smooth="yes"/>
      <point x="381" y="127"/>
      <point x="351" y="47"/>
      <point x="271" y="47" type="curve" smooth="yes"/>
      <point x="199" y="47"/>
      <point x="178" y="106"/>
      <point x="178" y="196" type="curve" smooth="yes"/>
      <point x="178" y="760" type="line"/>
      <point x="27" y="760" type="line"/>
      <point x="27" y="721" type="line"/>
      <point x="76" y="721"/>
      <point x="80" y="715"/>
      <point x="80" y="660" type="curve" smooth="yes"/>
      <point x="80" y="182" type="line" smooth="yes"/>
      <point x="80" y="48"/>
      <point x="134" y="-12"/>
      <point x="233" y="-12" type="curve" smooth="yes"/>
      <point x="305" y="-12"/>
      <point x="344" y="12"/>
      <point x="379" y="80" type="curve"/>
      <point x="384" y="80" type="line"/>
      <point x="382" y="57"/>
      <point x="381" y="35"/>
      <point x="381" y="11" type="curve" smooth="yes"/>
    </contour>
  </outline>
</glyph>
<glyph name="uni0570" format="2">
  <advance width="539"/>
  <unicode hex="0570"/>
  <note>
uni0570
</note>
  <outline>
    <contour>
      <point x="155" y="173" type="line"/>
      <point x="161" y="238"/>
      <point x="196" y="303"/>
      <point x="267" y="303" type="curve" smooth="yes"/>
      <point x="341" y="303"/>
      <point x="366" y="255"/>
      <point x="366" y="163" type="curve" smooth="yes"/>
      <point x="366" y="0" type="line"/>
      <point x="515" y="0" type="line"/>
      <point x="515" y="39" type="line"/>
      <point x="468" y="39"/>
      <point x="464" y="45"/>
      <point x="464" y="106" type="curve" smooth="yes"/>
      <point x="464" y="177" type="line" smooth="yes"/>
      <point x="464" y="303"/>
      <point x="415" y="361"/>
      <point x="304" y="361" type="curve" smooth="yes"/>
      <point x="244" y="361"/>
      <point x="194" y="337"/>
      <point x="160" y="273" type="curve"/>
      <point x="154" y="273" type="line"/>
      <point x="164" y="597"/>
      <point x="241" y="722"/>
      <point x="344" y="722" type="curve" smooth="yes"/>
      <point x="402" y="722"/>
      <point x="429" y="691"/>
      <point x="429" y="606" type="curve"/>
      <point x="484" y="606"/>
      <point x="513" y="623"/>
      <point x="513" y="664" type="curve" smooth="yes"/>
      <point x="513" y="722"/>
      <point x="458" y="767"/>
      <point x="358" y="767" type="curve" smooth="yes"/>
      <point x="167" y="767"/>
      <point x="55" y="597"/>
      <point x="55" y="198" type="curve"/>
    </contour>
  </outline>
</glyph>
<glyph name="uni0571" format="2">
  <advance width="563"/>
  <unicode hex="0571"/>
  <note>
uni0571
</note>
  <outline>
    <contour>
      <point x="224" y="-9" type="curve" smooth="yes"/>
      <point x="328" y="-9"/>
      <point x="380" y="43"/>
      <point x="418" y="118" type="curve"/>
      <point x="394" y="143" type="line"/>
      <point x="363" y="85"/>
      <point x="326" y="49"/>
      <point x="255" y="49" type="curve" smooth="yes"/>
      <point x="190" y="49"/>
      <point x="147" y="83"/>
      <point x="147" y="169" type="curve" smooth="yes"/>
      <point x="147" y="269"/>
      <point x="182" y="333"/>
      <point x="330" y="436" type="curve" smooth="yes"/>
      <point x="498" y="553"/>
      <point x="507" y="563"/>
      <point x="507" y="596" type="curve" smooth="yes"/>
      <point x="507" y="633"/>
      <point x="490" y="647"/>
      <point x="329" y="674" type="curve" smooth="yes"/>
      <point x="195" y="696"/>
      <point x="174" y="719"/>
      <point x="174" y="773" type="curve"/>
      <point x="119" y="773"/>
      <point x="91" y="747"/>
      <point x="91" y="709" type="curve" smooth="yes"/>
      <point x="91" y="654"/>
      <point x="122" y="638"/>
      <point x="286" y="616" type="curve" smooth="yes"/>
      <point x="413" y="599"/>
      <point x="420" y="590"/>
      <point x="420" y="575" type="curve" smooth="yes"/>
      <point x="420" y="561"/>
      <point x="414" y="550"/>
      <point x="283" y="462" type="curve" smooth="yes"/>
      <point x="82" y="327"/>
      <point x="48" y="272"/>
      <point x="48" y="160" type="curve" smooth="yes"/>
      <point x="48" y="54"/>
      <point x="111" y="-9"/>
    </contour>
    <contour>
      <point x="385" y="509" type="line"/>
      <point x="300" y="459" type="line"/>
      <point x="397" y="82" type="line"/>
      <point x="401" y="82" type="line"/>
      <point x="424" y="0" type="line"/>
      <point x="554" y="0" type="line"/>
      <point x="554" y="39" type="line"/>
      <point x="509" y="39"/>
      <point x="503" y="48"/>
      <point x="488" y="106" type="curve" smooth="yes"/>
    </contour>
  </outline>
</glyph>
<glyph name="uni0572" format="2">
  <advance width="598"/>
  <unicode hex="0572"/>
  <note>
uni0572
</note>
  <outline>
    <contour>
      <point x="334" y="502" type="curve" smooth="yes"/>
      <point x="270" y="502"/>
      <point x="226" y="487"/>
      <point x="187" y="414" type="curve"/>
      <point x="183" y="414" type="line"/>
      <point x="174" y="492" type="line"/>
      <point x="32" y="492" type="line"/>
      <point x="32" y="453" type="line"/>
      <point x="79" y="453"/>
      <point x="88" y="446"/>
      <point x="88" y="394" type="curve" smooth="yes"/>
      <point x="88" y="0" type="line"/>
      <point x="239" y="0" type="line"/>
      <point x="239" y="39" type="line"/>
      <point x="190" y="39"/>
      <point x="186" y="45"/>
      <point x="186" y="98" type="curve" smooth="yes"/>
      <point x="186" y="276" type="line" smooth="yes"/>
      <point x="186" y="361"/>
      <point x="207" y="443"/>
      <point x="295" y="443" type="curve" smooth="yes"/>
      <point x="366" y="443"/>
      <point x="389" y="388"/>
      <point x="389" y="301" type="curve" smooth="yes"/>
      <point x="389" y="-265" type="line"/>
      <point x="487" y="-265" type="line"/>
      <point x="487" y="313" type="line" smooth="yes"/>
      <point x="487" y="443"/>
      <point x="435" y="502"/>
    </contour>
    <contour>
      <point x="410" y="-265" type="line"/>
      <point x="618" y="-265" type="line"/>
      <point x="618" y="-219" type="line"/>
      <point x="410" y="-219" type="line"/>
    </contour>
  </outline>
</glyph>
<glyph name="uni0573" format="2">
  <advance width="569"/>
  <unicode hex="0573"/>
  <note>
uni0573
</note>
  <outline>
    <contour>
      <point x="239" y="-12" type="curve"/>
      <point x="310" y="-12"/>
      <point x="358" y="12"/>
      <point x="393" y="80" type="curve"/>
      <point x="398" y="80" type="line"/>
      <point x="406" y="0" type="line"/>
      <point x="547" y="0" type="line"/>
      <point x="547" y="39" type="line"/>
      <point x="503" y="39"/>
      <point x="493" y="46"/>
      <point x="493" y="98" type="curve" smooth="yes"/>
      <point x="493" y="210" type="line" smooth="yes"/>
      <point x="493" y="418"/>
      <point x="374" y="493"/>
      <point x="29" y="500" type="curve"/>
      <point x="29" y="445" type="line"/>
      <point x="309" y="439"/>
      <point x="395" y="378"/>
      <point x="395" y="206" type="curve" smooth="yes"/>
      <point x="395" y="126"/>
      <point x="362" y="47"/>
      <point x="276" y="47" type="curve" smooth="yes"/>
      <point x="189" y="47"/>
      <point x="158" y="120"/>
      <point x="158" y="256" type="curve" smooth="yes"/>
      <point x="158" y="523"/>
      <point x="272" y="723"/>
      <point x="406" y="723" type="curve" smooth="yes"/>
      <point x="468" y="723"/>
      <point x="495" y="692"/>
      <point x="495" y="606" type="curve"/>
      <point x="550" y="606"/>
      <point x="580" y="624"/>
      <point x="580" y="664" type="curve" smooth="yes"/>
      <point x="580" y="722"/>
      <point x="524" y="767"/>
      <point x="409" y="767" type="curve" smooth="yes"/>
      <point x="203" y="767"/>
      <point x="59" y="528"/>
      <point x="59" y="228" type="curve" smooth="yes"/>
      <point x="59" y="59"/>
      <point x="130" y="-12"/>
    </contour>
  </outline>
</glyph>
<glyph name="uni0574" format="2">
  <advance width="566"/>
  <unicode hex="0574"/>
  <note>
uni0574
</note>
  <outline>
    <contour>
      <point x="477" y="98" type="curve" smooth="yes"/>
      <point x="477" y="421" type="line" smooth="yes"/>
      <point x="477" y="482"/>
      <point x="457" y="523"/>
      <point x="413" y="571" type="curve" smooth="yes"/>
      <point x="389" y="598"/>
      <point x="378" y="625"/>
      <point x="378" y="654" type="curve" smooth="yes"/>
      <point x="378" y="695"/>
      <point x="400" y="723"/>
      <point x="442" y="723" type="curve" smooth="yes"/>
      <point x="490" y="723"/>
      <point x="510" y="684"/>
      <point x="510" y="605" type="curve"/>
      <point x="559" y="607"/>
      <point x="596" y="631"/>
      <point x="596" y="670" type="curve" smooth="yes"/>
      <point x="596" y="722"/>
      <point x="535" y="767"/>
      <point x="447" y="767" type="curve" smooth="yes"/>
      <point x="351" y="767"/>
      <point x="290" y="719"/>
      <point x="290" y="643" type="curve" smooth="yes"/>
      <point x="290" y="599"/>
      <point x="305" y="571"/>
      <point x="333" y="538" type="curve" smooth="yes"/>
      <point x="362" y="503"/>
      <point x="380" y="470"/>
      <point x="380" y="417" type="curve" smooth="yes"/>
      <point x="380" y="216" type="line" smooth="yes"/>
      <point x="380" y="127"/>
      <point x="350" y="47"/>
      <point x="270" y="47" type="curve" smooth="yes"/>
      <point x="198" y="47"/>
      <point x="177" y="106"/>
      <point x="177" y="196" type="curve" smooth="yes"/>
      <point x="177" y="492" type="line"/>
      <point x="26" y="492" type="line"/>
      <point x="26" y="453" type="line"/>
      <point x="75" y="453"/>
      <point x="79" y="447"/>
      <point x="79" y="392" type="curve" smooth="yes"/>
      <point x="79" y="182" type="line" smooth="yes"/>
      <point x="79" y="48"/>
      <point x="133" y="-12"/>
      <point x="232" y="-12" type="curve" smooth="yes"/>
      <point x="304" y="-12"/>
      <point x="343" y="12"/>
      <point x="378" y="80" type="curve"/>
      <point x="383" y="80" type="line"/>
      <point x="391" y="0" type="line"/>
      <point x="531" y="0" type="line"/>
      <point x="531" y="39" type="line"/>
      <point x="487" y="39"/>
      <point x="477" y="46"/>
    </contour>
  </outline>
</glyph>
<glyph name="uni0575" format="2">
  <advance width="273"/>
  <unicode hex="0575"/>
  <note>
uni0575
</note>
  <outline>
    <contour>
      <point x="88" y="98" type="line" smooth="yes"/>
      <point x="88" y="-15"/>
      <point x="129" y="-50"/>
      <point x="129" y="-137" type="curve" smooth="yes"/>
      <point x="129" y="-194"/>
      <point x="103" y="-220"/>
      <point x="45" y="-220" type="curve" smooth="yes"/>
      <point x="38" y="-220" type="line"/>
      <point x="38" y="-265" type="line"/>
      <point x="53" y="-265" type="line" smooth="yes"/>
      <point x="177" y="-265"/>
      <point x="226" y="-220"/>
      <point x="226" y="-134" type="curve" smooth="yes"/>
      <point x="226" y="-42"/>
      <point x="186" y="-9"/>
      <point x="186" y="98" type="curve" smooth="yes"/>
      <point x="186" y="492" type="line"/>
      <point x="29" y="492" type="line"/>
      <point x="29" y="453" type="line"/>
      <point x="48" y="453" type="line" smooth="yes"/>
      <point x="82" y="453"/>
      <point x="88" y="447"/>
      <point x="88" y="407" type="curve" smooth="yes"/>
    </contour>
  </outline>
</glyph>
<glyph name="uni0576" format="2">
  <advance width="575"/>
  <unicode hex="0576"/>
  <note>
uni0576
</note>
  <outline>
    <contour>
      <point x="233" y="-12" type="curve" smooth="yes"/>
      <point x="303" y="-12"/>
      <point x="344" y="2"/>
      <point x="386" y="77" type="curve"/>
      <point x="390" y="77" type="line"/>
      <point x="399" y="0" type="line"/>
      <point x="541" y="0" type="line"/>
      <point x="541" y="39" type="line"/>
      <point x="494" y="39"/>
      <point x="485" y="46"/>
      <point x="485" y="98" type="curve" smooth="yes"/>
      <point x="485" y="492" type="line"/>
      <point x="334" y="492" type="line"/>
      <point x="334" y="453" type="line"/>
      <point x="384" y="453"/>
      <point x="388" y="447"/>
      <point x="388" y="394" type="curve" smooth="yes"/>
      <point x="388" y="216" type="line" smooth="yes"/>
      <point x="388" y="131"/>
      <point x="360" y="47"/>
      <point x="261" y="47" type="curve" smooth="yes"/>
      <point x="190" y="47"/>
      <point x="157" y="109"/>
      <point x="157" y="201" type="curve" smooth="yes"/>
      <point x="157" y="311"/>
      <point x="184" y="424"/>
      <point x="239" y="538" type="curve"/>
      <point x="170" y="562" type="line"/>
      <point x="93" y="436"/>
      <point x="58" y="305"/>
      <point x="58" y="187" type="curve" smooth="yes"/>
      <point x="58" y="52"/>
      <point x="133" y="-12"/>
    </contour>
    <contour>
      <point x="239" y="552" type="line"/>
      <point x="171" y="566"/>
      <point x="146" y="592"/>
      <point x="146" y="638" type="curve" smooth="yes"/>
      <point x="146" y="690"/>
      <point x="167" y="719"/>
      <point x="272" y="719" type="curve"/>
      <point x="270" y="751"/>
      <point x="244" y="769"/>
      <point x="190" y="769" type="curve" smooth="yes"/>
      <point x="108" y="769"/>
      <point x="60" y="716"/>
      <point x="60" y="648" type="curve" smooth="yes"/>
      <point x="60" y="583"/>
      <point x="97" y="543"/>
      <point x="158" y="524" type="curve"/>
      <point x="239" y="538" type="line"/>
    </contour>
  </outline>
</glyph>
<glyph name="uni0577" format="2">
  <advance width="491"/>
  <unicode hex="0577"/>
  <note>
uni0577
</note>
  <outline>
    <contour>
      <point x="234" y="501" type="curve" smooth="yes"/>
      <point x="113" y="501"/>
      <point x="38" y="431"/>
      <point x="38" y="363" type="curve" smooth="yes"/>
      <point x="38" y="318"/>
      <point x="69" y="297"/>
      <point x="123" y="297" type="curve"/>
      <point x="123" y="391"/>
      <point x="160" y="454"/>
      <point x="233" y="454" type="curve" smooth="yes"/>
      <point x="300" y="454"/>
      <point x="339" y="412"/>
      <point x="339" y="337" type="curve" smooth="yes"/>
      <point x="339" y="240"/>
      <point x="304" y="157"/>
      <point x="213" y="49" type="curve" smooth="yes"/>
      <point x="72" y="-118"/>
      <point x="53" y="-161"/>
      <point x="53" y="-209" type="curve" smooth="yes"/>
      <point x="53" y="-244"/>
      <point x="73" y="-265"/>
      <point x="115" y="-265" type="curve" smooth="yes"/>
      <point x="412" y="-265" type="line"/>
      <point x="412" y="-210" type="line"/>
      <point x="199" y="-210" type="line" smooth="yes"/>
      <point x="166" y="-210"/>
      <point x="157" y="-202"/>
      <point x="157" y="-178" type="curve" smooth="yes"/>
      <point x="157" y="-140"/>
      <point x="169" y="-117"/>
      <point x="309" y="50" type="curve" smooth="yes"/>
      <point x="415" y="176"/>
      <point x="437" y="244"/>
      <point x="437" y="325" type="curve" smooth="yes"/>
      <point x="437" y="441"/>
      <point x="355" y="501"/>
    </contour>
  </outline>
</glyph>
<glyph name="uni0578" format="2">
  <advance width="566"/>
  <unicode hex="0578"/>
  <note>
uni0578
</note>
  <anchor x="288" y="492" name="top"/>
  <outline>
    <contour>
      <point x="540" y="39" type="line"/>
      <point x="491" y="39"/>
      <point x="487" y="45"/>
      <point x="487" y="100" type="curve" smooth="yes"/>
      <point x="487" y="313" type="line" smooth="yes"/>
      <point x="487" y="443"/>
      <point x="435" y="502"/>
      <point x="334" y="502" type="curve" smooth="yes"/>
      <point x="270" y="502"/>
      <point x="226" y="487"/>
      <point x="187" y="414" type="curve"/>
      <point x="183" y="414" type="line"/>
      <point x="174" y="492" type="line"/>
      <point x="32" y="492" type="line"/>
      <point x="32" y="453" type="line"/>
      <point x="79" y="453"/>
      <point x="88" y="446"/>
      <point x="88" y="394" type="curve" smooth="yes"/>
      <point x="88" y="0" type="line"/>
      <point x="239" y="0" type="line"/>
      <point x="239" y="39" type="line"/>
      <point x="190" y="39"/>
      <point x="186" y="45"/>
      <point x="186" y="98" type="curve" smooth="yes"/>
      <point x="186" y="276" type="line" smooth="yes"/>
      <point x="186" y="361"/>
      <point x="207" y="443"/>
      <point x="295" y="443" type="curve" smooth="yes"/>
      <point x="366" y="443"/>
      <point x="389" y="388"/>
      <point x="389" y="301" type="curve" smooth="yes"/>
      <point x="389" y="0" type="line"/>
      <point x="540" y="0" type="line"/>
    </contour>
  </outline>
</glyph>
<glyph name="uni0579" format="2">
  <advance width="336"/>
  <unicode hex="0579"/>
  <note>
uni0579
</note>
  <outline>
    <contour>
      <point x="304" y="275" type="line"/>
      <point x="221" y="290" type="line"/>
      <point x="94" y="58" type="line" smooth="yes"/>
      <point x="-7" y="-127"/>
      <point x="-30" y="-170"/>
      <point x="-30" y="-209" type="curve" smooth="yes"/>
      <point x="-30" y="-244"/>
      <point x="-10" y="-265"/>
      <point x="33" y="-265" type="curve" smooth="yes"/>
      <point x="304" y="-265" type="line"/>
      <point x="304" y="-210" type="line"/>
      <point x="116" y="-210" type="line" smooth="yes"/>
      <point x="83" y="-210"/>
      <point x="75" y="-202"/>
      <point x="75" y="-178" type="curve" smooth="yes"/>
      <point x="75" y="-156"/>
      <point x="82" y="-133"/>
      <point x="164" y="18" type="curve" smooth="yes"/>
    </contour>
    <contour>
      <point x="143" y="492" type="curve"/>
      <point x="84" y="492" type="line"/>
      <point x="57" y="466"/>
      <point x="41" y="429"/>
      <point x="41" y="402" type="curve" smooth="yes"/>
      <point x="41" y="362"/>
      <point x="58" y="331"/>
      <point x="96" y="306" type="curve" smooth="yes"/>
      <point x="214" y="229" type="line"/>
      <point x="305" y="275" type="line"/>
      <point x="162" y="372" type="line" smooth="yes"/>
      <point x="129" y="395"/>
      <point x="123" y="409"/>
      <point x="123" y="432" type="curve" smooth="yes"/>
      <point x="123" y="453"/>
      <point x="128" y="469"/>
    </contour>
  </outline>
</glyph>
<glyph name="uni057A" format="2">
  <advance width="846"/>
  <unicode hex="057A"/>
  <note>
uni057A
</note>
  <outline>
    <contour>
      <point x="606" y="492" type="line"/>
      <point x="606" y="453" type="line"/>
      <point x="657" y="453"/>
      <point x="660" y="445"/>
      <point x="660" y="393" type="curve" smooth="yes"/>
      <point x="660" y="216" type="line" smooth="yes"/>
      <point x="660" y="127"/>
      <point x="627" y="49"/>
      <point x="555" y="49" type="curve" smooth="yes"/>
      <point x="490" y="49"/>
      <point x="468" y="100"/>
      <point x="468" y="191" type="curve" smooth="yes"/>
      <point x="468" y="492" type="line"/>
      <point x="316" y="492" type="line"/>
      <point x="316" y="453" type="line"/>
      <point x="365" y="453"/>
      <point x="370" y="447"/>
      <point x="370" y="393" type="curve" smooth="yes"/>
      <point x="370" y="203" type="line" smooth="yes"/>
      <point x="370" y="118"/>
      <point x="341" y="48"/>
      <point x="264" y="48" type="curve" smooth="yes"/>
      <point x="197" y="48"/>
      <point x="177" y="100"/>
      <point x="177" y="191" type="curve" smooth="yes"/>
      <point x="177" y="492" type="line"/>
      <point x="26" y="492" type="line"/>
      <point x="26" y="453" type="line"/>
      <point x="75" y="453"/>
      <point x="80" y="449"/>
      <point x="80" y="397" type="curve" smooth="yes"/>
      <point x="80" y="178" type="line" smooth="yes"/>
      <point x="80" y="51"/>
      <point x="126" y="-10"/>
      <point x="225" y="-10" type="curve" smooth="yes"/>
      <point x="293" y="-10"/>
      <point x="344" y="16"/>
      <point x="376" y="82" type="curve"/>
      <point x="382" y="82" type="line"/>
      <point x="402" y="25"/>
      <point x="444" y="-10"/>
      <point x="519" y="-10" type="curve" smooth="yes"/>
      <point x="578" y="-10"/>
      <point x="625" y="9"/>
      <point x="658" y="81" type="curve"/>
      <point x="664" y="81" type="line"/>
      <point x="662" y="55"/>
      <point x="660" y="30"/>
      <point x="660" y="4" type="curve" smooth="yes"/>
      <point x="660" y="-265" type="line"/>
      <point x="811" y="-265" type="line"/>
      <point x="811" y="-228" type="line"/>
      <point x="762" y="-228"/>
      <point x="758" y="-221"/>
      <point x="758" y="-172" type="curve" smooth="yes"/>
      <point x="758" y="492" type="line"/>
    </contour>
  </outline>
</glyph>
<glyph name="uni057B" format="2">
  <advance width="550"/>
  <unicode hex="057B"/>
  <note>
uni057B
</note>
  <outline>
    <contour>
      <point x="128" y="-265" type="curve" smooth="yes"/>
      <point x="459" y="-265" type="line"/>
      <point x="459" y="-210" type="line"/>
      <point x="213" y="-210" type="line" smooth="yes"/>
      <point x="180" y="-210"/>
      <point x="173" y="-202"/>
      <point x="173" y="-180" type="curve" smooth="yes"/>
      <point x="173" y="-151"/>
      <point x="193" y="-129"/>
      <point x="357" y="50" type="curve" smooth="yes"/>
      <point x="472" y="176"/>
      <point x="497" y="242"/>
      <point x="497" y="325" type="curve" smooth="yes"/>
      <point x="497" y="439"/>
      <point x="404" y="501"/>
      <point x="276" y="501" type="curve" smooth="yes"/>
      <point x="129" y="501"/>
      <point x="49" y="426"/>
      <point x="49" y="314" type="curve" smooth="yes"/>
      <point x="49" y="252"/>
      <point x="73" y="210"/>
      <point x="137" y="152" type="curve" smooth="yes"/>
      <point x="195" y="100"/>
      <point x="212" y="68"/>
      <point x="212" y="30" type="curve" smooth="yes"/>
      <point x="212" y="0"/>
      <point x="199" y="-23"/>
      <point x="164" y="-63" type="curve"/>
      <point x="218" y="-63" type="line"/>
      <point x="257" y="-17"/>
      <point x="275" y="19"/>
      <point x="275" y="57" type="curve" smooth="yes"/>
      <point x="275" y="98"/>
      <point x="251" y="139"/>
      <point x="208" y="189" type="curve" smooth="yes"/>
      <point x="164" y="241"/>
      <point x="148" y="269"/>
      <point x="148" y="322" type="curve" smooth="yes"/>
      <point x="148" y="400"/>
      <point x="186" y="454"/>
      <point x="275" y="454" type="curve" smooth="yes"/>
      <point x="349" y="454"/>
      <point x="398" y="410"/>
      <point x="398" y="327" type="curve" smooth="yes"/>
      <point x="398" y="220"/>
      <point x="368" y="157"/>
      <point x="268" y="49" type="curve" smooth="yes"/>
      <point x="97" y="-134"/>
      <point x="70" y="-169"/>
      <point x="70" y="-213" type="curve" smooth="yes"/>
      <point x="70" y="-244"/>
      <point x="86" y="-265"/>
    </contour>
  </outline>
</glyph>
<glyph name="uni057C" format="2">
  <advance width="592"/>
  <unicode hex="057C"/>
  <note>
uni057C
</note>
  <outline>
    <contour>
      <point x="366" y="0" type="line"/>
      <point x="592" y="0" type="line"/>
      <point x="592" y="46" type="line"/>
      <point x="366" y="46" type="line"/>
    </contour>
    <contour>
      <point x="328" y="502" type="curve" smooth="yes"/>
      <point x="267" y="502"/>
      <point x="225" y="482"/>
      <point x="187" y="415" type="curve"/>
      <point x="183" y="415" type="line"/>
      <point x="174" y="492" type="line"/>
      <point x="32" y="492" type="line"/>
      <point x="32" y="453" type="line"/>
      <point x="79" y="453"/>
      <point x="88" y="446"/>
      <point x="88" y="394" type="curve" smooth="yes"/>
      <point x="88" y="0" type="line"/>
      <point x="186" y="0" type="line"/>
      <point x="186" y="276" type="line" smooth="yes"/>
      <point x="186" y="380"/>
      <point x="217" y="443"/>
      <point x="291" y="443" type="curve" smooth="yes"/>
      <point x="361" y="443"/>
      <point x="394" y="398"/>
      <point x="394" y="309" type="curve" smooth="yes"/>
      <point x="394" y="216"/>
      <point x="369" y="113"/>
      <point x="310" y="0" type="curve"/>
      <point x="383" y="0" type="line"/>
      <point x="462" y="114"/>
      <point x="493" y="202"/>
      <point x="493" y="315" type="curve" smooth="yes"/>
      <point x="493" y="440"/>
      <point x="429" y="502"/>
    </contour>
  </outline>
</glyph>
<glyph name="uni057E" format="2">
  <advance width="590"/>
  <unicode hex="057E"/>
  <note>
uni057E
</note>
  <outline>
    <contour>
      <point x="233" y="-12" type="curve" smooth="yes"/>
      <point x="305" y="-12"/>
      <point x="344" y="12"/>
      <point x="379" y="80" type="curve"/>
      <point x="384" y="80" type="line"/>
      <point x="383" y="56"/>
      <point x="381" y="32"/>
      <point x="381" y="8" type="curve" smooth="yes"/>
      <point x="381" y="-265" type="line"/>
      <point x="478" y="-265" type="line"/>
      <point x="478" y="760" type="line"/>
      <point x="327" y="760" type="line"/>
      <point x="327" y="721" type="line"/>
      <point x="377" y="721"/>
      <point x="381" y="715"/>
      <point x="381" y="662" type="curve" smooth="yes"/>
      <point x="381" y="216" type="line" smooth="yes"/>
      <point x="381" y="127"/>
      <point x="351" y="47"/>
      <point x="271" y="47" type="curve" smooth="yes"/>
      <point x="199" y="47"/>
      <point x="178" y="106"/>
      <point x="178" y="196" type="curve" smooth="yes"/>
      <point x="178" y="492" type="line"/>
      <point x="27" y="492" type="line"/>
      <point x="27" y="453" type="line"/>
      <point x="76" y="453"/>
      <point x="80" y="447"/>
      <point x="80" y="392" type="curve" smooth="yes"/>
      <point x="80" y="182" type="line" smooth="yes"/>
      <point x="80" y="48"/>
      <point x="134" y="-12"/>
    </contour>
    <contour>
      <point x="462" y="-265" type="line"/>
      <point x="610" y="-265" type="line"/>
      <point x="610" y="-219" type="line"/>
      <point x="462" y="-219" type="line"/>
    </contour>
  </outline>
</glyph>
<glyph name="uni057F" format="2">
  <advance width="859"/>
  <unicode hex="057F"/>
  <note>
uni057F
</note>
  <outline>
    <contour>
      <point x="779" y="100" type="curve" smooth="yes"/>
      <point x="779" y="313" type="line" smooth="yes"/>
      <point x="779" y="443"/>
      <point x="728" y="502"/>
      <point x="627" y="502" type="curve" smooth="yes"/>
      <point x="562" y="502"/>
      <point x="519" y="487"/>
      <point x="480" y="414" type="curve"/>
      <point x="476" y="414" type="line"/>
      <point x="470" y="492" type="line"/>
      <point x="327" y="492" type="line"/>
      <point x="327" y="453" type="line"/>
      <point x="377" y="453"/>
      <point x="381" y="447"/>
      <point x="381" y="394" type="curve" smooth="yes"/>
      <point x="381" y="216" type="line" smooth="yes"/>
      <point x="381" y="127"/>
      <point x="351" y="47"/>
      <point x="271" y="47" type="curve" smooth="yes"/>
      <point x="199" y="47"/>
      <point x="178" y="106"/>
      <point x="178" y="196" type="curve" smooth="yes"/>
      <point x="178" y="492" type="line"/>
      <point x="27" y="492" type="line"/>
      <point x="27" y="453" type="line"/>
      <point x="76" y="453"/>
      <point x="80" y="447"/>
      <point x="80" y="392" type="curve" smooth="yes"/>
      <point x="80" y="182" type="line" smooth="yes"/>
      <point x="80" y="48"/>
      <point x="134" y="-12"/>
      <point x="233" y="-12" type="curve" smooth="yes"/>
      <point x="305" y="-12"/>
      <point x="344" y="12"/>
      <point x="379" y="80" type="curve"/>
      <point x="384" y="80" type="line"/>
      <point x="392" y="0" type="line"/>
      <point x="532" y="0" type="line"/>
      <point x="532" y="39" type="line"/>
      <point x="488" y="39"/>
      <point x="478" y="46"/>
      <point x="478" y="98" type="curve" smooth="yes"/>
      <point x="478" y="276" type="line" smooth="yes"/>
      <point x="478" y="361"/>
      <point x="500" y="443"/>
      <point x="588" y="443" type="curve" smooth="yes"/>
      <point x="659" y="443"/>
      <point x="682" y="388"/>
      <point x="682" y="301" type="curve" smooth="yes"/>
      <point x="682" y="0" type="line"/>
      <point x="833" y="0" type="line"/>
      <point x="833" y="39" type="line"/>
      <point x="783" y="39"/>
      <point x="779" y="45"/>
    </contour>
  </outline>
</glyph>
<glyph name="uni0580" format="2">
  <advance width="568"/>
  <unicode hex="0580"/>
  <note>
uni0580
</note>
  <outline>
    <contour>
      <point x="537" y="39" type="line"/>
      <point x="488" y="39"/>
      <point x="484" y="45"/>
      <point x="484" y="100" type="curve" smooth="yes"/>
      <point x="484" y="313" type="line" smooth="yes"/>
      <point x="484" y="443"/>
      <point x="432" y="502"/>
      <point x="331" y="502" type="curve" smooth="yes"/>
      <point x="267" y="502"/>
      <point x="223" y="489"/>
      <point x="184" y="414" type="curve"/>
      <point x="180" y="414" type="line"/>
      <point x="171" y="492" type="line"/>
      <point x="29" y="492" type="line"/>
      <point x="29" y="453" type="line"/>
      <point x="76" y="453"/>
      <point x="85" y="446"/>
      <point x="85" y="394" type="curve" smooth="yes"/>
      <point x="85" y="-265" type="line"/>
      <point x="236" y="-265" type="line"/>
      <point x="236" y="-226" type="line"/>
      <point x="187" y="-226"/>
      <point x="183" y="-220"/>
      <point x="183" y="-167" type="curve" smooth="yes"/>
      <point x="183" y="276" type="line" smooth="yes"/>
      <point x="183" y="361"/>
      <point x="204" y="443"/>
      <point x="292" y="443" type="curve" smooth="yes"/>
      <point x="363" y="443"/>
      <point x="386" y="388"/>
      <point x="386" y="301" type="curve" smooth="yes"/>
      <point x="386" y="0" type="line"/>
      <point x="537" y="0" type="line"/>
    </contour>
  </outline>
</glyph>
<glyph name="uni0581" format="2">
  <advance width="564"/>
  <unicode hex="0581"/>
  <note>
uni0581
</note>
  <outline>
    <contour>
      <point x="255" y="-268" type="curve" smooth="yes"/>
      <point x="391" y="-268"/>
      <point x="482" y="-188"/>
      <point x="482" y="-29" type="curve" smooth="yes"/>
      <point x="482" y="492" type="line"/>
      <point x="405" y="492" type="line"/>
      <point x="393" y="409" type="line"/>
      <point x="387" y="409" type="line"/>
      <point x="360" y="471"/>
      <point x="317" y="502"/>
      <point x="249" y="502" type="curve" smooth="yes"/>
      <point x="122" y="502"/>
      <point x="55" y="415"/>
      <point x="55" y="246" type="curve" smooth="yes"/>
      <point x="55" y="75"/>
      <point x="123" y="-9"/>
      <point x="243" y="-9" type="curve" smooth="yes"/>
      <point x="313" y="-9"/>
      <point x="354" y="24"/>
      <point x="384" y="85" type="curve"/>
      <point x="390" y="85" type="line"/>
      <point x="385" y="46"/>
      <point x="384" y="8"/>
      <point x="384" y="-16" type="curve" smooth="yes"/>
      <point x="384" y="-47" type="line" smooth="yes"/>
      <point x="384" y="-169"/>
      <point x="338" y="-224"/>
      <point x="259" y="-224" type="curve" smooth="yes"/>
      <point x="180" y="-224"/>
      <point x="144" y="-175"/>
      <point x="144" y="-90" type="curve"/>
      <point x="103" y="-90"/>
      <point x="79" y="-109"/>
      <point x="79" y="-144" type="curve" smooth="yes"/>
      <point x="79" y="-217"/>
      <point x="133" y="-268"/>
    </contour>
    <contour>
      <point x="268" y="43" type="curve" smooth="yes"/>
      <point x="183" y="43"/>
      <point x="154" y="124"/>
      <point x="154" y="245" type="curve" smooth="yes"/>
      <point x="154" y="366"/>
      <point x="184" y="449"/>
      <point x="272" y="449" type="curve" smooth="yes"/>
      <point x="351" y="449"/>
      <point x="388" y="380"/>
      <point x="388" y="246" type="curve" smooth="yes"/>
      <point x="388" y="94"/>
      <point x="336" y="43"/>
    </contour>
  </outline>
</glyph>
<glyph name="uni0582" format="2">
  <advance width="333"/>
  <unicode hex="0582"/>
  <note>
uni0582
</note>
  <outline>
    <contour>
      <point x="324" y="103" type="line"/>
      <point x="283" y="103" type="line"/>
      <point x="283" y="48"/>
      <point x="276" y="45"/>
      <point x="231" y="45" type="curve" smooth="yes"/>
      <point x="186" y="45" type="line"/>
      <point x="186" y="492" type="line"/>
      <point x="29" y="492" type="line"/>
      <point x="29" y="453" type="line"/>
      <point x="48" y="453" type="line" smooth="yes"/>
      <point x="82" y="453"/>
      <point x="88" y="447"/>
      <point x="88" y="407" type="curve" smooth="yes"/>
      <point x="88" y="0" type="line"/>
      <point x="324" y="0" type="line"/>
    </contour>
  </outline>
</glyph>
<glyph name="uni0584" format="2">
  <advance width="588"/>
  <unicode hex="0584"/>
  <note>
uni0584
</note>
  <outline>
    <contour>
      <point x="338" y="502" type="curve" smooth="yes"/>
      <point x="261" y="502"/>
      <point x="216" y="464"/>
      <point x="191" y="405" type="curve"/>
      <point x="187" y="405" type="line"/>
      <point x="176" y="492" type="line"/>
      <point x="41" y="492" type="line"/>
      <point x="41" y="453" type="line"/>
      <point x="89" y="453"/>
      <point x="97" y="446"/>
      <point x="97" y="391" type="curve" smooth="yes"/>
      <point x="97" y="-265" type="line"/>
      <point x="250" y="-265" type="line"/>
      <point x="250" y="-226" type="line"/>
      <point x="205" y="-226"/>
      <point x="194" y="-220"/>
      <point x="194" y="-156" type="curve" smooth="yes"/>
      <point x="194" y="-43" type="line" smooth="yes"/>
      <point x="194" y="1"/>
      <point x="194" y="56"/>
      <point x="189" y="82" type="curve"/>
      <point x="194" y="82" type="line"/>
      <point x="219" y="26"/>
      <point x="264" y="-11"/>
      <point x="346" y="-11" type="curve" smooth="yes"/>
      <point x="465" y="-11"/>
      <point x="532" y="70"/>
      <point x="532" y="243" type="curve" smooth="yes"/>
      <point x="532" y="417"/>
      <point x="465" y="502"/>
    </contour>
    <contour>
      <point x="319" y="41" type="curve" smooth="yes"/>
      <point x="241" y="41"/>
      <point x="195" y="93"/>
      <point x="195" y="244" type="curve" smooth="yes"/>
      <point x="195" y="371"/>
      <point x="227" y="449"/>
      <point x="314" y="449" type="curve" smooth="yes"/>
      <point x="398" y="449"/>
      <point x="434" y="378"/>
      <point x="434" y="243" type="curve" smooth="yes"/>
      <point x="434" y="106"/>
      <point x="399" y="41"/>
    </contour>
    <contour>
      <point x="17" y="-116" type="line"/>
      <point x="492" y="-116" type="line"/>
      <point x="492" y="-71" type="line"/>
      <point x="17" y="-71" type="line"/>
    </contour>
  </outline>
</glyph>
<glyph name="uni0585" format="2">
  <advance width="551"/>
  <unicode hex="0585"/>
  <note>
uni0585
</note>
  <anchor x="275" y="492" name="top"/>
  <outline>
    <contour>
      <point x="274" y="-10" type="curve" smooth="yes"/>
      <point x="418" y="-10"/>
      <point x="494" y="74"/>
      <point x="494" y="246" type="curve" smooth="yes"/>
      <point x="494" y="421"/>
      <point x="414" y="502"/>
      <point x="278" y="502" type="curve" smooth="yes"/>
      <point x="131" y="502"/>
      <point x="56" y="419"/>
      <point x="56" y="246" type="curve" smooth="yes"/>
      <point x="56" y="74"/>
      <point x="139" y="-10"/>
    </contour>
    <contour>
      <point x="276" y="36" type="curve" smooth="yes"/>
      <point x="190" y="36"/>
      <point x="155" y="112"/>
      <point x="155" y="246" type="curve" smooth="yes"/>
      <point x="155" y="384"/>
      <point x="189" y="455"/>
      <point x="277" y="455" type="curve" smooth="yes"/>
      <point x="360" y="455"/>
      <point x="395" y="387"/>
      <point x="395" y="246" type="curve" smooth="yes"/>
      <point x="395" y="115"/>
      <point x="364" y="36"/>
    </contour>
  </outline>
</glyph>
<glyph name="uni0586" format="2">
  <advance width="647"/>
  <unicode hex="0586"/>
  <note>
uni0586
</note>
  <outline>
    <contour>
      <point x="306" y="-10" type="curve" smooth="yes"/>
      <point x="495" y="-10"/>
      <point x="597" y="75"/>
      <point x="597" y="197" type="curve" smooth="yes"/>
      <point x="597" y="324"/>
      <point x="533" y="384"/>
      <point x="323" y="447" type="curve" smooth="yes"/>
      <point x="178" y="490"/>
      <point x="149" y="529"/>
      <point x="149" y="601" type="curve" smooth="yes"/>
      <point x="149" y="678"/>
      <point x="188" y="720"/>
      <point x="270" y="720" type="curve"/>
      <point x="270" y="765" type="line"/>
      <point x="133" y="765"/>
      <point x="54" y="698"/>
      <point x="54" y="600" type="curve" smooth="yes"/>
      <point x="54" y="498"/>
      <point x="107" y="444"/>
      <point x="302" y="393" type="curve"/>
      <point x="451" y="348"/>
      <point x="498" y="298"/>
      <point x="498" y="196" type="curve" smooth="yes"/>
      <point x="498" y="94"/>
      <point x="434" y="35"/>
      <point x="304" y="35" type="curve" smooth="yes"/>
      <point x="160" y="35"/>
      <point x="99" y="94"/>
      <point x="99" y="208" type="curve"/>
      <point x="60" y="208"/>
      <point x="32" y="187"/>
      <point x="32" y="153" type="curve" smooth="yes"/>
      <point x="32" y="64"/>
      <point x="113" y="-10"/>
    </contour>
    <contour>
      <point x="270" y="-265" type="line"/>
      <point x="411" y="-265" type="line"/>
      <point x="411" y="-226" type="line"/>
      <point x="363" y="-226"/>
      <point x="356" y="-219"/>
      <point x="356" y="-159" type="curve" smooth="yes"/>
      <point x="356" y="765" type="line"/>
      <point x="270" y="765" type="line"/>
    </contour>
  </outline>
</glyph>
<glyph name="uni0587" format="2">
  <advance width="600"/>
  <unicode hex="0587"/>
  <note>
uni0587
</note>
  <outline>
    <contour>
      <point x="233" y="-12" type="curve" smooth="yes"/>
      <point x="305" y="-12"/>
      <point x="344" y="12"/>
      <point x="379" y="80" type="curve"/>
      <point x="384" y="80" type="line"/>
      <point x="392" y="0" type="line"/>
      <point x="478" y="0" type="line"/>
      <point x="478" y="492" type="line"/>
      <point x="327" y="492" type="line"/>
      <point x="327" y="453" type="line"/>
      <point x="377" y="453"/>
      <point x="381" y="447"/>
      <point x="381" y="394" type="curve" smooth="yes"/>
      <point x="381" y="216" type="line" smooth="yes"/>
      <point x="381" y="127"/>
      <point x="351" y="47"/>
      <point x="271" y="47" type="curve" smooth="yes"/>
      <point x="199" y="47"/>
      <point x="178" y="106"/>
      <point x="178" y="196" type="curve" smooth="yes"/>
      <point x="178" y="760" type="line"/>
      <point x="27" y="760" type="line"/>
      <point x="27" y="721" type="line"/>
      <point x="76" y="721"/>
      <point x="80" y="715"/>
      <point x="80" y="660" type="curve" smooth="yes"/>
      <point x="80" y="182" type="line" smooth="yes"/>
      <point x="80" y="48"/>
      <point x="134" y="-12"/>
    </contour>
    <contour>
      <point x="466" y="0" type="line"/>
      <point x="606" y="0" type="line"/>
      <point x="606" y="46" type="line"/>
      <point x="466" y="46" type="line"/>
    </contour>
  </outline>
</glyph>
<glyph name="uni0588" format="2">
  <advance width="273"/>
  <unicode hex="0588"/>
  <note>
uni0575
</note>
  <outline>
    <contour>
      <point x="88" y="98" type="line"/>
      <point x="88" y="-15"/>
      <point x="129" y="-50"/>
      <point x="129" y="-137" type="curve" smooth="yes"/>
      <point x="129" y="-194"/>
      <point x="103" y="-220"/>
      <point x="45" y="-220" type="curve" smooth="yes"/>
      <point x="38" y="-220" type="line"/>
      <point x="38" y="-265" type="line"/>
      <point x="53" y="-265" type="line" smooth="yes"/>
      <point x="177" y="-265"/>
      <point x="226" y="-220"/>
      <point x="226" y="-134" type="curve" smooth="yes"/>
      <point x="226" y="-42"/>
      <point x="186" y="-9"/>
      <point x="186" y="98" type="curve" smooth="yes"/>
      <point x="186" y="492" type="line"/>
      <point x="29" y="492" type="line"/>
      <point x="29" y="453" type="line"/>
      <point x="48" y="453" type="line" smooth="yes"/>
      <point x="82" y="453"/>
      <point x="88" y="447"/>
      <point x="88" y="407" type="curve" smooth="yes"/>
    </contour>
    <contour>
      <point x="3" y="132" type="line"/>
      <point x="3" y="87" type="line"/>
      <point x="271" y="87" type="line"/>
      <point x="271" y="132" type="line"/>
    </contour>
  </outline>
</glyph>
<glyph name="uni0589" format="2">
  <advance width="266"/>
  <unicode hex="0589"/>
  <note>
uni0589
</note>
  <outline>
    <contour>
      <point x="133" y="378" type="curve" smooth="yes"/>
      <point x="164" y="378"/>
      <point x="192" y="393"/>
      <point x="192" y="440" type="curve" smooth="yes"/>
      <point x="192" y="488"/>
      <point x="164" y="502"/>
      <point x="133" y="502" type="curve" smooth="yes"/>
      <point x="100" y="502"/>
      <point x="74" y="488"/>
      <point x="74" y="440" type="curve" smooth="yes"/>
      <point x="74" y="393"/>
      <point x="100" y="378"/>
    </contour>
    <contour>
      <point x="133" y="-7" type="curve" smooth="yes"/>
      <point x="164" y="-7"/>
      <point x="192" y="8"/>
      <point x="192" y="56" type="curve" smooth="yes"/>
      <point x="192" y="103"/>
      <point x="164" y="117"/>
      <point x="133" y="117" type="curve" smooth="yes"/>
      <point x="100" y="117"/>
      <point x="74" y="103"/>
      <point x="74" y="56" type="curve" smooth="yes"/>
      <point x="74" y="8"/>
      <point x="100" y="-7"/>
    </contour>
  </outline>
</glyph>
<glyph name="uni058A" format="2">
  <advance width="456"/>
  <unicode hex="058A"/>
  <note>
uni058A
</note>
  <outline>
    <contour>
      <point x="191" y="202" type="curve" smooth="yes"/>
      <point x="265" y="202"/>
      <point x="335" y="215"/>
      <point x="401" y="248" type="curve"/>
      <point x="386" y="294" type="line"/>
      <point x="328" y="274"/>
      <point x="269" y="266"/>
      <point x="219" y="266" type="curve" smooth="yes"/>
      <point x="162" y="266"/>
      <point x="140" y="287"/>
      <point x="140" y="338" type="curve"/>
      <point x="61" y="338" type="line"/>
      <point x="61" y="242"/>
      <point x="99" y="202"/>
    </contour>
  </outline>
</glyph>
<glyph name="uni058E" format="2">
  <advance width="818"/>
  <unicode hex="058E"/>
  <outline>
    <contour>
      <point x="409" y="-10" type="curve" smooth="yes"/>
      <point x="459" y="-10"/>
      <point x="507" y="10"/>
      <point x="543" y="43" type="curve"/>
      <point x="643" y="48"/>
      <point x="723" y="126"/>
      <point x="726" y="226" type="curve"/>
      <point x="759" y="261"/>
      <point x="779" y="307"/>
      <point x="779" y="357" type="curve" smooth="yes"/>
      <point x="779" y="405"/>
      <point x="760" y="451"/>
      <point x="727" y="487" type="curve"/>
      <point x="724" y="585"/>
      <point x="647" y="665"/>
      <point x="542" y="672" type="curve"/>
      <point x="507" y="704"/>
      <point x="459" y="724"/>
      <point x="409" y="724" type="curve" smooth="yes"/>
      <point x="358" y="724"/>
      <point x="311" y="704"/>
      <point x="276" y="671" type="curve"/>
      <point x="176" y="666"/>
      <point x="95" y="590"/>
      <point x="91" y="488" type="curve"/>
      <point x="59" y="453"/>
      <point x="39" y="407"/>
      <point x="39" y="357" type="curve" smooth="yes"/>
      <point x="39" y="308"/>
      <point x="58" y="263"/>
      <point x="91" y="227" type="curve"/>
      <point x="94" y="128"/>
      <point x="172" y="49"/>
      <point x="276" y="42" type="curve"/>
      <point x="311" y="10"/>
      <point x="358" y="-10"/>
    </contour>
    <contour>
      <point x="237" y="91" type="curve"/>
      <point x="180" y="109"/>
      <point x="136" y="166"/>
      <point x="136" y="233" type="curve" smooth="yes"/>
      <point x="136" y="317"/>
      <point x="203" y="388"/>
      <point x="288" y="388" type="curve" smooth="yes"/>
      <point x="312" y="388"/>
      <point x="336" y="382"/>
      <point x="357" y="370" type="curve"/>
      <point x="274" y="348"/>
      <point x="212" y="273"/>
      <point x="212" y="184" type="curve" smooth="yes"/>
      <point x="212" y="150"/>
      <point x="221" y="118"/>
    </contour>
    <contour>
      <point x="408" y="30" type="curve" smooth="yes"/>
      <point x="326" y="30"/>
      <point x="259" y="99"/>
      <point x="259" y="184" type="curve" smooth="yes"/>
      <point x="259" y="250"/>
      <point x="302" y="308"/>
      <point x="360" y="328" type="curve"/>
      <point x="343" y="299"/>
      <point x="335" y="267"/>
      <point x="335" y="234" type="curve" smooth="yes"/>
      <point x="335" y="148"/>
      <point x="393" y="70"/>
      <point x="479" y="49" type="curve"/>
      <point x="458" y="37"/>
      <point x="434" y="30"/>
    </contour>
    <contour>
      <point x="100" y="292" type="curve"/>
      <point x="90" y="312"/>
      <point x="85" y="334"/>
      <point x="85" y="357" type="curve" smooth="yes"/>
      <point x="85" y="441"/>
      <point x="152" y="509"/>
      <point x="236" y="509" type="curve" smooth="yes"/>
      <point x="303" y="509"/>
      <point x="359" y="465"/>
      <point x="378" y="404" type="curve"/>
      <point x="349" y="420"/>
      <point x="317" y="428"/>
      <point x="285" y="428" type="curve" smooth="yes"/>
      <point x="201" y="428"/>
      <point x="126" y="374"/>
    </contour>
    <contour>
      <point x="533" y="82" type="curve" smooth="yes"/>
      <point x="450" y="82"/>
      <point x="381" y="149"/>
      <point x="381" y="237" type="curve" smooth="yes"/>
      <point x="381" y="258"/>
      <point x="386" y="280"/>
      <point x="396" y="299" type="curve"/>
      <point x="420" y="221"/>
      <point x="494" y="163"/>
      <point x="581" y="163" type="curve" smooth="yes"/>
      <point x="614" y="163"/>
      <point x="646" y="172"/>
      <point x="672" y="187" type="curve"/>
      <point x="654" y="126"/>
      <point x="599" y="82"/>
    </contour>
    <contour>
      <point x="421" y="415" type="curve"/>
      <point x="397" y="493"/>
      <point x="323" y="551"/>
      <point x="236" y="551" type="curve" smooth="yes"/>
      <point x="203" y="551"/>
      <point x="171" y="542"/>
      <point x="144" y="527" type="curve"/>
      <point x="162" y="590"/>
      <point x="220" y="632"/>
      <point x="284" y="632" type="curve" smooth="yes"/>
      <point x="367" y="632"/>
      <point x="436" y="565"/>
      <point x="436" y="477" type="curve" smooth="yes"/>
      <point x="436" y="456"/>
      <point x="431" y="434"/>
    </contour>
    <contour>
      <point x="582" y="205" type="curve" smooth="yes"/>
      <point x="515" y="205"/>
      <point x="459" y="249"/>
      <point x="440" y="310" type="curve"/>
      <point x="469" y="294"/>
      <point x="500" y="286"/>
      <point x="533" y="286" type="curve" smooth="yes"/>
      <point x="617" y="286"/>
      <point x="692" y="340"/>
      <point x="717" y="421" type="curve"/>
      <point x="727" y="402"/>
      <point x="733" y="380"/>
      <point x="733" y="357" type="curve" smooth="yes"/>
      <point x="733" y="273"/>
      <point x="666" y="205"/>
    </contour>
    <contour>
      <point x="456" y="386" type="curve"/>
      <point x="474" y="415"/>
      <point x="482" y="447"/>
      <point x="482" y="480" type="curve" smooth="yes"/>
      <point x="482" y="566"/>
      <point x="424" y="644"/>
      <point x="338" y="665" type="curve"/>
      <point x="359" y="678"/>
      <point x="383" y="684"/>
      <point x="408" y="684" type="curve" smooth="yes"/>
      <point x="491" y="684"/>
      <point x="558" y="615"/>
      <point x="558" y="530" type="curve" smooth="yes"/>
      <point x="558" y="464"/>
      <point x="515" y="406"/>
    </contour>
    <contour>
      <point x="529" y="326" type="curve" smooth="yes"/>
      <point x="505" y="326"/>
      <point x="481" y="332"/>
      <point x="460" y="344" type="curve"/>
      <point x="543" y="366"/>
      <point x="605" y="441"/>
      <point x="605" y="530" type="curve" smooth="yes"/>
      <point x="605" y="564"/>
      <point x="596" y="596"/>
      <point x="580" y="624" type="curve"/>
      <point x="639" y="603"/>
      <point x="681" y="547"/>
      <point x="681" y="481" type="curve" smooth="yes"/>
      <point x="681" y="397"/>
      <point x="614" y="326"/>
    </contour>
  </outline>
</glyph>
<glyph name="uni058F" format="2">
  <advance width="685"/>
  <unicode hex="058F"/>
  <note>
uni058F
</note>
  <outline>
    <contour>
      <point x="52" y="366" type="line"/>
      <point x="153" y="366" type="line"/>
      <point x="153" y="457" type="line" smooth="yes"/>
      <point x="153" y="556"/>
      <point x="202" y="627"/>
      <point x="300" y="627" type="curve" smooth="yes"/>
      <point x="392" y="627"/>
      <point x="446" y="572"/>
      <point x="446" y="461" type="curve" smooth="yes"/>
      <point x="446" y="0" type="line"/>
      <point x="598" y="0" type="line"/>
      <point x="598" y="37" type="line"/>
      <point x="554" y="37"/>
      <point x="547" y="48"/>
      <point x="547" y="111" type="curve" smooth="yes"/>
      <point x="547" y="445" type="line" smooth="yes"/>
      <point x="547" y="600"/>
      <point x="453" y="674"/>
      <point x="299" y="674" type="curve" smooth="yes"/>
      <point x="139" y="674"/>
      <point x="52" y="584"/>
      <point x="52" y="443" type="curve" smooth="yes"/>
    </contour>
    <contour>
      <point x="326" y="300" type="line"/>
      <point x="669" y="300" type="line"/>
      <point x="669" y="344" type="line"/>
      <point x="326" y="344" type="line"/>
    </contour>
    <contour>
      <point x="326" y="198" type="line"/>
      <point x="669" y="198" type="line"/>
      <point x="669" y="243" type="line"/>
      <point x="326" y="243" type="line"/>
    </contour>
  </outline>
</glyph>
<glyph name="uniFB13" format="2">
  <advance width="1143"/>
  <unicode hex="FB13"/>
  <note>
uniFB13
</note>
  <outline>
    <contour>
      <point x="477" y="98" type="curve" smooth="yes"/>
      <point x="477" y="421" type="line" smooth="yes"/>
      <point x="477" y="481"/>
      <point x="457" y="521"/>
      <point x="414" y="569" type="curve" smooth="yes"/>
      <point x="390" y="596"/>
      <point x="378" y="624"/>
      <point x="378" y="654" type="curve" smooth="yes"/>
      <point x="378" y="695"/>
      <point x="400" y="723"/>
      <point x="454" y="723" type="curve" smooth="yes"/>
      <point x="518" y="723"/>
      <point x="594" y="704"/>
      <point x="678" y="665" type="curve"/>
      <point x="744" y="704" type="line"/>
      <point x="646" y="745"/>
      <point x="532" y="767"/>
      <point x="447" y="767" type="curve" smooth="yes"/>
      <point x="341" y="767"/>
      <point x="290" y="719"/>
      <point x="290" y="643" type="curve" smooth="yes"/>
      <point x="290" y="599"/>
      <point x="306" y="569"/>
      <point x="333" y="538" type="curve" smooth="yes"/>
      <point x="362" y="504"/>
      <point x="380" y="469"/>
      <point x="380" y="417" type="curve" smooth="yes"/>
      <point x="380" y="216" type="line" smooth="yes"/>
      <point x="380" y="127"/>
      <point x="350" y="47"/>
      <point x="270" y="47" type="curve" smooth="yes"/>
      <point x="198" y="47"/>
      <point x="177" y="106"/>
      <point x="177" y="196" type="curve" smooth="yes"/>
      <point x="177" y="492" type="line"/>
      <point x="26" y="492" type="line"/>
      <point x="26" y="453" type="line"/>
      <point x="75" y="453"/>
      <point x="79" y="447"/>
      <point x="79" y="392" type="curve" smooth="yes"/>
      <point x="79" y="182" type="line" smooth="yes"/>
      <point x="79" y="48"/>
      <point x="133" y="-12"/>
      <point x="232" y="-12" type="curve" smooth="yes"/>
      <point x="304" y="-12"/>
      <point x="343" y="12"/>
      <point x="378" y="80" type="curve"/>
      <point x="383" y="80" type="line"/>
      <point x="391" y="0" type="line"/>
      <point x="531" y="0" type="line"/>
      <point x="531" y="39" type="line"/>
      <point x="487" y="39"/>
      <point x="477" y="46"/>
    </contour>
    <contour>
      <point x="1052" y="98" type="curve" smooth="yes"/>
      <point x="1052" y="492" type="line"/>
      <point x="902" y="492" type="line"/>
      <point x="902" y="453" type="line"/>
      <point x="950" y="453"/>
      <point x="955" y="447"/>
      <point x="955" y="394" type="curve" smooth="yes"/>
      <point x="955" y="216" type="line" smooth="yes"/>
      <point x="955" y="131"/>
      <point x="927" y="47"/>
      <point x="828" y="47" type="curve" smooth="yes"/>
      <point x="757" y="47"/>
      <point x="724" y="109"/>
      <point x="724" y="201" type="curve" smooth="yes"/>
      <point x="724" y="311"/>
      <point x="751" y="424"/>
      <point x="806" y="538" type="curve"/>
      <point x="737" y="562" type="line"/>
      <point x="660" y="436"/>
      <point x="625" y="305"/>
      <point x="625" y="187" type="curve" smooth="yes"/>
      <point x="625" y="52"/>
      <point x="700" y="-12"/>
      <point x="800" y="-12" type="curve" smooth="yes"/>
      <point x="870" y="-12"/>
      <point x="911" y="2"/>
      <point x="953" y="77" type="curve"/>
      <point x="957" y="77" type="line"/>
      <point x="966" y="0" type="line"/>
      <point x="1108" y="0" type="line"/>
      <point x="1108" y="39" type="line"/>
      <point x="1061" y="39"/>
      <point x="1052" y="46"/>
    </contour>
    <contour>
      <point x="744" y="704" type="curve"/>
      <point x="659" y="721" type="line"/>
      <point x="638" y="702"/>
      <point x="627" y="673"/>
      <point x="627" y="643" type="curve" smooth="yes"/>
      <point x="627" y="583"/>
      <point x="664" y="543"/>
      <point x="725" y="524" type="curve"/>
      <point x="806" y="538" type="line"/>
      <point x="806" y="552" type="line"/>
      <point x="738" y="566"/>
      <point x="713" y="592"/>
      <point x="713" y="634" type="curve" smooth="yes"/>
      <point x="713" y="665"/>
      <point x="721" y="683"/>
    </contour>
  </outline>
</glyph>
<glyph name="uniFB14" format="2">
  <advance width="1139"/>
  <unicode hex="FB14"/>
  <note>
uniFB14
</note>
  <outline>
    <contour>
      <point x="290" y="643" type="curve" smooth="yes"/>
      <point x="290" y="598"/>
      <point x="305" y="570"/>
      <point x="334" y="537" type="curve" smooth="yes"/>
      <point x="357" y="511"/>
      <point x="380" y="469"/>
      <point x="380" y="417" type="curve" smooth="yes"/>
      <point x="380" y="216" type="line" smooth="yes"/>
      <point x="380" y="127"/>
      <point x="350" y="47"/>
      <point x="270" y="47" type="curve" smooth="yes"/>
      <point x="198" y="47"/>
      <point x="177" y="106"/>
      <point x="177" y="196" type="curve" smooth="yes"/>
      <point x="177" y="492" type="line"/>
      <point x="26" y="492" type="line"/>
      <point x="26" y="453" type="line"/>
      <point x="75" y="453"/>
      <point x="79" y="447"/>
      <point x="79" y="392" type="curve" smooth="yes"/>
      <point x="79" y="182" type="line" smooth="yes"/>
      <point x="79" y="48"/>
      <point x="133" y="-12"/>
      <point x="232" y="-12" type="curve" smooth="yes"/>
      <point x="304" y="-12"/>
      <point x="343" y="12"/>
      <point x="378" y="80" type="curve"/>
      <point x="383" y="80" type="line"/>
      <point x="391" y="0" type="line"/>
      <point x="531" y="0" type="line"/>
      <point x="531" y="39" type="line"/>
      <point x="487" y="39"/>
      <point x="477" y="46"/>
      <point x="477" y="98" type="curve" smooth="yes"/>
      <point x="477" y="421" type="line" smooth="yes"/>
      <point x="477" y="483"/>
      <point x="457" y="522"/>
      <point x="413" y="572" type="curve" smooth="yes"/>
      <point x="390" y="599"/>
      <point x="378" y="625"/>
      <point x="378" y="654" type="curve" smooth="yes"/>
      <point x="378" y="695"/>
      <point x="400" y="723"/>
      <point x="454" y="723" type="curve" smooth="yes"/>
      <point x="529" y="723"/>
      <point x="631" y="701"/>
      <point x="723" y="653" type="curve"/>
      <point x="751" y="709" type="line"/>
      <point x="644" y="749"/>
      <point x="545" y="767"/>
      <point x="447" y="767" type="curve" smooth="yes"/>
      <point x="341" y="767"/>
      <point x="290" y="719"/>
    </contour>
    <contour>
      <point x="1052" y="318" type="line"/>
      <point x="954" y="318" type="line"/>
      <point x="954" y="216" type="line" smooth="yes"/>
      <point x="954" y="127"/>
      <point x="925" y="47"/>
      <point x="844" y="47" type="curve" smooth="yes"/>
      <point x="772" y="47"/>
      <point x="751" y="106"/>
      <point x="751" y="196" type="curve" smooth="yes"/>
      <point x="751" y="709" type="line"/>
      <point x="653" y="709" type="line"/>
      <point x="653" y="182" type="line" smooth="yes"/>
      <point x="653" y="48"/>
      <point x="707" y="-12"/>
      <point x="806" y="-12" type="curve" smooth="yes"/>
      <point x="878" y="-12"/>
      <point x="917" y="12"/>
      <point x="952" y="80" type="curve"/>
      <point x="957" y="80" type="line"/>
      <point x="965" y="0" type="line"/>
      <point x="1105" y="0" type="line"/>
      <point x="1105" y="39" type="line"/>
      <point x="1061" y="39"/>
      <point x="1052" y="46"/>
      <point x="1052" y="98" type="curve" smooth="yes"/>
    </contour>
    <contour>
      <point x="732" y="447" type="line"/>
      <point x="1101" y="447" type="line"/>
      <point x="1101" y="492" type="line"/>
      <point x="732" y="492" type="line"/>
    </contour>
  </outline>
</glyph>
<glyph name="uniFB15" format="2">
  <advance width="1137"/>
  <unicode hex="FB15"/>
  <note>
uniFB15
</note>
  <outline>
    <contour>
      <point x="290" y="643" type="curve" smooth="yes"/>
      <point x="290" y="600"/>
      <point x="306" y="571"/>
      <point x="332" y="541" type="curve" smooth="yes"/>
      <point x="355" y="514"/>
      <point x="380" y="471"/>
      <point x="380" y="417" type="curve" smooth="yes"/>
      <point x="380" y="216" type="line" smooth="yes"/>
      <point x="380" y="127"/>
      <point x="350" y="47"/>
      <point x="270" y="47" type="curve" smooth="yes"/>
      <point x="198" y="47"/>
      <point x="177" y="106"/>
      <point x="177" y="196" type="curve" smooth="yes"/>
      <point x="177" y="492" type="line"/>
      <point x="26" y="492" type="line"/>
      <point x="26" y="453" type="line"/>
      <point x="75" y="453"/>
      <point x="79" y="447"/>
      <point x="79" y="392" type="curve" smooth="yes"/>
      <point x="79" y="182" type="line" smooth="yes"/>
      <point x="79" y="48"/>
      <point x="133" y="-12"/>
      <point x="232" y="-12" type="curve" smooth="yes"/>
      <point x="304" y="-12"/>
      <point x="343" y="12"/>
      <point x="378" y="80" type="curve"/>
      <point x="383" y="80" type="line"/>
      <point x="391" y="0" type="line"/>
      <point x="531" y="0" type="line"/>
      <point x="531" y="39" type="line"/>
      <point x="487" y="39"/>
      <point x="477" y="46"/>
      <point x="477" y="98" type="curve" smooth="yes"/>
      <point x="477" y="421" type="line" smooth="yes"/>
      <point x="477" y="484"/>
      <point x="456" y="522"/>
      <point x="412" y="574" type="curve" smooth="yes"/>
      <point x="390" y="600"/>
      <point x="378" y="626"/>
      <point x="378" y="654" type="curve" smooth="yes"/>
      <point x="378" y="695"/>
      <point x="402" y="723"/>
      <point x="456" y="723" type="curve" smooth="yes"/>
      <point x="527" y="723"/>
      <point x="633" y="701"/>
      <point x="729" y="653" type="curve"/>
      <point x="756" y="709" type="line"/>
      <point x="642" y="751"/>
      <point x="536" y="767"/>
      <point x="450" y="767" type="curve" smooth="yes"/>
      <point x="344" y="767"/>
      <point x="290" y="719"/>
    </contour>
    <contour>
      <point x="1110" y="39" type="line"/>
      <point x="1061" y="39"/>
      <point x="1057" y="45"/>
      <point x="1057" y="100" type="curve" smooth="yes"/>
      <point x="1057" y="313" type="line" smooth="yes"/>
      <point x="1057" y="443"/>
      <point x="1005" y="502"/>
      <point x="904" y="502" type="curve" smooth="yes"/>
      <point x="840" y="502"/>
      <point x="795" y="489"/>
      <point x="757" y="414" type="curve"/>
      <point x="752" y="414" type="line"/>
      <point x="754" y="440"/>
      <point x="756" y="464"/>
      <point x="756" y="491" type="curve" smooth="yes"/>
      <point x="756" y="709" type="line"/>
      <point x="658" y="709" type="line"/>
      <point x="658" y="-265" type="line"/>
      <point x="809" y="-265" type="line"/>
      <point x="809" y="-226" type="line"/>
      <point x="760" y="-226"/>
      <point x="756" y="-220"/>
      <point x="756" y="-167" type="curve" smooth="yes"/>
      <point x="756" y="276" type="line" smooth="yes"/>
      <point x="756" y="361"/>
      <point x="777" y="443"/>
      <point x="865" y="443" type="curve" smooth="yes"/>
      <point x="936" y="443"/>
      <point x="959" y="388"/>
      <point x="959" y="301" type="curve" smooth="yes"/>
      <point x="959" y="0" type="line"/>
      <point x="1110" y="0" type="line"/>
    </contour>
  </outline>
</glyph>
<glyph name="uniFB16" format="2">
  <advance width="1125"/>
  <unicode hex="FB16"/>
  <note>
uniFB16
</note>
  <outline>
    <contour>
      <point x="381" y="-265" type="line"/>
      <point x="479" y="-265" type="line"/>
      <point x="479" y="679" type="line" smooth="yes"/>
      <point x="479" y="707"/>
      <point x="490" y="723"/>
      <point x="522" y="723" type="curve" smooth="yes"/>
      <point x="559" y="723"/>
      <point x="614" y="704"/>
      <point x="665" y="669" type="curve"/>
      <point x="731" y="708" type="line"/>
      <point x="649" y="748"/>
      <point x="567" y="767"/>
      <point x="504" y="767" type="curve"/>
      <point x="419" y="767"/>
      <point x="381" y="732"/>
      <point x="381" y="667" type="curve" smooth="yes"/>
      <point x="381" y="216" type="line" smooth="yes"/>
      <point x="381" y="127"/>
      <point x="351" y="47"/>
      <point x="271" y="47" type="curve" smooth="yes"/>
      <point x="199" y="47"/>
      <point x="178" y="106"/>
      <point x="178" y="196" type="curve" smooth="yes"/>
      <point x="178" y="492" type="line"/>
      <point x="27" y="492" type="line"/>
      <point x="27" y="453" type="line"/>
      <point x="76" y="453"/>
      <point x="80" y="447"/>
      <point x="80" y="392" type="curve" smooth="yes"/>
      <point x="80" y="182" type="line" smooth="yes"/>
      <point x="80" y="48"/>
      <point x="134" y="-12"/>
      <point x="233" y="-12" type="curve" smooth="yes"/>
      <point x="305" y="-12"/>
      <point x="344" y="12"/>
      <point x="379" y="80" type="curve"/>
      <point x="386" y="80" type="line"/>
      <point x="383" y="55"/>
      <point x="381" y="31"/>
      <point x="381" y="7" type="curve" smooth="yes"/>
    </contour>
    <contour>
      <point x="462" y="-265" type="line"/>
      <point x="609" y="-265" type="line"/>
      <point x="609" y="-219" type="line"/>
      <point x="462" y="-219" type="line"/>
    </contour>
    <contour>
      <point x="783" y="-12" type="curve" smooth="yes"/>
      <point x="853" y="-12"/>
      <point x="894" y="2"/>
      <point x="936" y="77" type="curve"/>
      <point x="940" y="77" type="line"/>
      <point x="949" y="0" type="line"/>
      <point x="1091" y="0" type="line"/>
      <point x="1091" y="39" type="line"/>
      <point x="1044" y="39"/>
      <point x="1035" y="46"/>
      <point x="1035" y="98" type="curve" smooth="yes"/>
      <point x="1035" y="492" type="line"/>
      <point x="885" y="492" type="line"/>
      <point x="885" y="453" type="line"/>
      <point x="933" y="453"/>
      <point x="938" y="447"/>
      <point x="938" y="394" type="curve" smooth="yes"/>
      <point x="938" y="216" type="line" smooth="yes"/>
      <point x="938" y="131"/>
      <point x="910" y="47"/>
      <point x="811" y="47" type="curve" smooth="yes"/>
      <point x="740" y="47"/>
      <point x="707" y="109"/>
      <point x="707" y="201" type="curve" smooth="yes"/>
      <point x="707" y="311"/>
      <point x="734" y="424"/>
      <point x="789" y="538" type="curve"/>
      <point x="720" y="562" type="line"/>
      <point x="643" y="436"/>
      <point x="608" y="305"/>
      <point x="608" y="187" type="curve" smooth="yes"/>
      <point x="608" y="52"/>
      <point x="683" y="-12"/>
    </contour>
    <contour>
      <point x="708" y="524" type="curve"/>
      <point x="789" y="538" type="line"/>
      <point x="789" y="552" type="line"/>
      <point x="714" y="570"/>
      <point x="696" y="592"/>
      <point x="696" y="629" type="curve" smooth="yes"/>
      <point x="696" y="665"/>
      <point x="705" y="685"/>
      <point x="731" y="708" type="curve"/>
      <point x="648" y="727" type="line"/>
      <point x="624" y="707"/>
      <point x="610" y="674"/>
      <point x="610" y="639" type="curve" smooth="yes"/>
      <point x="610" y="583"/>
      <point x="640" y="547"/>
    </contour>
  </outline>
</glyph>
<glyph name="uniFB17" format="2">
  <advance width="1446"/>
  <unicode hex="FB17"/>
  <note>
uniFB17
</note>
  <outline>
    <contour>
      <point x="290" y="643" type="curve" smooth="yes"/>
      <point x="290" y="593"/>
      <point x="307" y="575"/>
      <point x="331" y="543" type="curve" smooth="yes"/>
      <point x="359" y="506"/>
      <point x="380" y="472"/>
      <point x="380" y="417" type="curve" smooth="yes"/>
      <point x="380" y="216" type="line" smooth="yes"/>
      <point x="380" y="127"/>
      <point x="350" y="47"/>
      <point x="270" y="47" type="curve" smooth="yes"/>
      <point x="198" y="47"/>
      <point x="177" y="106"/>
      <point x="177" y="196" type="curve" smooth="yes"/>
      <point x="177" y="492" type="line"/>
      <point x="26" y="492" type="line"/>
      <point x="26" y="453" type="line"/>
      <point x="75" y="453"/>
      <point x="79" y="447"/>
      <point x="79" y="392" type="curve" smooth="yes"/>
      <point x="79" y="182" type="line" smooth="yes"/>
      <point x="79" y="48"/>
      <point x="133" y="-12"/>
      <point x="232" y="-12" type="curve" smooth="yes"/>
      <point x="304" y="-12"/>
      <point x="343" y="12"/>
      <point x="378" y="80" type="curve"/>
      <point x="383" y="80" type="line"/>
      <point x="391" y="0" type="line"/>
      <point x="531" y="0" type="line"/>
      <point x="531" y="39" type="line"/>
      <point x="487" y="39"/>
      <point x="477" y="46"/>
      <point x="477" y="98" type="curve" smooth="yes"/>
      <point x="477" y="421" type="line" smooth="yes"/>
      <point x="477" y="482"/>
      <point x="457" y="521"/>
      <point x="413" y="571" type="curve" smooth="yes"/>
      <point x="390" y="598"/>
      <point x="378" y="625"/>
      <point x="378" y="654" type="curve" smooth="yes"/>
      <point x="378" y="695"/>
      <point x="404" y="723"/>
      <point x="458" y="723" type="curve" smooth="yes"/>
      <point x="531" y="723"/>
      <point x="638" y="700"/>
      <point x="729" y="652" type="curve"/>
      <point x="756" y="709" type="line"/>
      <point x="653" y="749"/>
      <point x="546" y="767"/>
      <point x="452" y="767" type="curve" smooth="yes"/>
      <point x="345" y="767"/>
      <point x="290" y="719"/>
    </contour>
    <contour>
      <point x="1357" y="98" type="curve" smooth="yes"/>
      <point x="1357" y="492" type="line"/>
      <point x="1206" y="492" type="line"/>
      <point x="1206" y="453" type="line"/>
      <point x="1256" y="453"/>
      <point x="1260" y="447"/>
      <point x="1260" y="394" type="curve" smooth="yes"/>
      <point x="1260" y="216" type="line" smooth="yes"/>
      <point x="1260" y="127"/>
      <point x="1231" y="47"/>
      <point x="1150" y="47" type="curve" smooth="yes"/>
      <point x="1078" y="47"/>
      <point x="1057" y="106"/>
      <point x="1057" y="196" type="curve" smooth="yes"/>
      <point x="1057" y="313" type="line" smooth="yes"/>
      <point x="1057" y="443"/>
      <point x="1005" y="502"/>
      <point x="904" y="502" type="curve" smooth="yes"/>
      <point x="840" y="502"/>
      <point x="795" y="489"/>
      <point x="757" y="414" type="curve"/>
      <point x="752" y="414" type="line"/>
      <point x="754" y="440"/>
      <point x="756" y="464"/>
      <point x="756" y="490" type="curve" smooth="yes"/>
      <point x="756" y="709" type="line"/>
      <point x="658" y="704" type="line"/>
      <point x="658" y="-265" type="line"/>
      <point x="809" y="-265" type="line"/>
      <point x="809" y="-226" type="line"/>
      <point x="760" y="-226"/>
      <point x="756" y="-220"/>
      <point x="756" y="-167" type="curve" smooth="yes"/>
      <point x="756" y="276" type="line" smooth="yes"/>
      <point x="756" y="361"/>
      <point x="777" y="443"/>
      <point x="865" y="443" type="curve" smooth="yes"/>
      <point x="936" y="443"/>
      <point x="959" y="388"/>
      <point x="959" y="301" type="curve" smooth="yes"/>
      <point x="959" y="182" type="line" smooth="yes"/>
      <point x="959" y="48"/>
      <point x="1013" y="-12"/>
      <point x="1112" y="-12" type="curve" smooth="yes"/>
      <point x="1184" y="-12"/>
      <point x="1223" y="12"/>
      <point x="1258" y="80" type="curve"/>
      <point x="1263" y="80" type="line"/>
      <point x="1271" y="0" type="line"/>
      <point x="1411" y="0" type="line"/>
      <point x="1411" y="39" type="line"/>
      <point x="1367" y="39"/>
      <point x="1357" y="46"/>
    </contour>
  </outline>
</glyph>
